<svg width="35" height="36" viewBox="0 0 35 36" fill="none" xmlns="http://www.w3.org/2000/svg">
<path d="M17.5 2.6875C9.07812 2.6875 2.1875 9.57812 2.1875 18C2.1875 26.4219 9.07812 33.3125 17.5 33.3125C25.9219 33.3125 32.8125 26.4219 32.8125 18C32.8125 9.57812 25.9219 2.6875 17.5 2.6875ZM25.1562 19.0938H17.5C16.8438 19.0938 16.4062 18.6562 16.4062 18V8.15625C16.4062 7.5 16.8438 7.0625 17.5 7.0625C18.1562 7.0625 18.5938 7.5 18.5938 8.15625V16.9062H25.1562C25.8125 16.9062 26.25 17.3438 26.25 18C26.25 18.6562 25.8125 19.0938 25.1562 19.0938Z" fill="#42526B"/>
</svg>
