<svg width="35" height="35" viewBox="0 0 35 35" fill="none" xmlns="http://www.w3.org/2000/svg">
<path d="M18.5938 26.25C24.0303 26.25 28.4375 21.8428 28.4375 16.4062C28.4375 10.9697 24.0303 6.5625 18.5938 6.5625C13.1572 6.5625 8.75 10.9697 8.75 16.4062C8.75 21.8428 13.1572 26.25 18.5938 26.25Z" fill="#42526B"/>
<path d="M19.6875 0H17.5V4.375H19.6875V0Z" fill="#42526B"/>
<path d="M19.6875 28.4375H17.5V32.8125H19.6875V28.4375Z" fill="#42526B"/>
<path d="M35 15.3125H30.625V17.5H35V15.3125Z" fill="#42526B"/>
<path d="M6.5625 15.3125H2.1875V17.5H6.5625V15.3125Z" fill="#42526B"/>
<path d="M27.8736 24.1403L26.3268 25.687L29.4203 28.7806L30.9671 27.2338L27.8736 24.1403Z" fill="#42526B"/>
<path d="M7.76663 4.03189L6.21985 5.57867L9.31341 8.67224L10.8602 7.12546L7.76663 4.03189Z" fill="#42526B"/>
<path d="M9.31268 24.1395L6.21912 27.2331L7.7659 28.7799L10.8595 25.6863L9.31268 24.1395Z" fill="#42526B"/>
<path d="M29.4207 4.0322L26.3271 7.12576L27.8739 8.67254L30.9675 5.57898L29.4207 4.0322Z" fill="#42526B"/>
</svg>
