<svg width="35" height="36" viewBox="0 0 35 36" fill="none" xmlns="http://www.w3.org/2000/svg">
<g clip-path="url(#clip0_385_1069)">
<path d="M13.9882 1.10701C13.3849 0.582953 11.9524 -0.259403 11.7179 1.9223C10.876 7.5649 4.81372 11.5083 4.81372 17.0717C4.81372 21.7612 8.61538 25.5628 13.305 25.5628C17.9945 25.5628 21.7962 21.7612 21.7962 17.0717C21.7961 12.8168 20.0883 6.40625 13.9882 1.10701ZM9.98388 21.5753C9.85237 21.7513 9.65105 21.8444 9.44738 21.8444C9.30951 21.8444 9.17051 21.8018 9.051 21.7134C8.97633 21.658 7.21659 20.3296 6.83727 17.8186C6.45805 15.3082 8.15808 12.9555 8.23067 12.8566C8.44914 12.5586 8.86796 12.494 9.16616 12.7128C9.46383 12.9312 9.52841 13.3494 9.31055 13.6475C9.28853 13.6779 7.8658 15.6662 8.16086 17.6188C8.45488 19.5656 9.836 20.6289 9.84993 20.6394C10.1439 20.8616 10.2045 21.2803 9.98388 21.5753Z" fill="#42526B"/>
<path d="M9.84998 20.6394C9.83605 20.6289 8.45493 19.5657 8.16091 17.6188C7.86585 15.6663 9.28858 13.6779 9.3106 13.6475C9.52846 13.3494 9.46388 12.9312 9.16621 12.7128C8.86801 12.4941 8.44919 12.5586 8.23072 12.8566C8.15813 12.9555 6.4581 15.3082 6.83732 17.8186C7.21655 20.3296 8.97629 21.6581 9.05105 21.7134C9.17056 21.8018 9.30956 21.8444 9.44743 21.8444C9.6511 21.8444 9.85242 21.7514 9.98393 21.5753C10.2045 21.2803 10.1439 20.8616 9.84998 20.6394Z" fill="#F7F1E6"/>
<path d="M25.7305 21.5435C25.3862 21.2444 24.5688 20.7636 24.435 22.0088C23.9545 25.2289 20.4948 27.4793 20.4948 30.6541C20.4948 33.3304 22.6644 35.5 25.3407 35.5C28.0169 35.5 30.1863 33.3304 30.1863 30.6541C30.1863 28.226 29.2117 24.5676 25.7305 21.5435ZM23.4453 33.2243C23.3703 33.3247 23.2555 33.3779 23.1391 33.3779C23.0606 33.3779 22.9812 33.3536 22.9129 33.3032C22.8703 33.2716 21.866 32.5134 21.6497 31.0805C21.4333 29.6478 22.4034 28.3052 22.4448 28.2488C22.5695 28.0787 22.8086 28.0419 22.9786 28.1667C23.1485 28.2914 23.1855 28.53 23.0612 28.7001C23.0485 28.7175 22.2366 29.8522 22.405 30.9664C22.5729 32.0775 23.3608 32.6843 23.3689 32.6903C23.5367 32.817 23.5712 33.056 23.4453 33.2243Z" fill="#42526B"/>
<path d="M23.369 32.6902C23.3609 32.6842 22.5729 32.0774 22.405 30.9664C22.2366 29.8522 23.0485 28.7174 23.0612 28.7C23.1855 28.5299 23.1486 28.2912 22.9787 28.1666C22.8086 28.0418 22.5695 28.0786 22.4448 28.2487C22.4035 28.3051 21.4333 29.6477 21.6497 31.0804C21.866 32.5133 22.8703 33.2715 22.913 33.3031C22.9811 33.3536 23.0605 33.3778 23.1392 33.3778C23.2556 33.3778 23.3703 33.3247 23.4454 33.2242C23.5712 33.056 23.5366 32.817 23.369 32.6902Z" fill="#F7F1E6"/>
</g>
<defs>
<clipPath id="clip0_385_1069">
<rect width="35" height="35" fill="white" transform="translate(0 0.5)"/>
</clipPath>
</defs>
</svg>
