<svg width="35" height="36" viewBox="0 0 35 36" fill="none" xmlns="http://www.w3.org/2000/svg">
<g clip-path="url(#clip0_385_1057)">
<path d="M17.5 35.5C20.2497 35.5 22.8419 34.8481 25.1562 33.7172C19.3331 30.8756 15.3125 24.9147 15.3125 18C15.3125 11.0853 19.3331 5.12437 25.1562 2.28281C22.8419 1.15187 20.2497 0.5 17.5 0.5C7.83562 0.5 0 8.33562 0 18C0 27.6644 7.83562 35.5 17.5 35.5Z" fill="#42526B"/>
<path d="M30.625 7.0625C30.625 9.47969 28.6672 11.4375 26.25 11.4375C28.6672 11.4375 30.625 13.3953 30.625 15.8125C30.625 13.3953 32.5828 11.4375 35 11.4375C32.5828 11.4375 30.625 9.47969 30.625 7.0625Z" fill="#42526B"/>
<path d="M21.875 13.625C21.875 16.0422 19.9172 18 17.5 18C19.9172 18 21.875 19.9578 21.875 22.375C21.875 19.9578 23.8328 18 26.25 18C23.8328 18 21.875 16.0422 21.875 13.625Z" fill="#42526B"/>
<path d="M28.4375 28.9375C28.4375 26.5203 30.3953 24.5625 32.8125 24.5625C30.3953 24.5625 28.4375 22.6047 28.4375 20.1875C28.4375 22.6047 26.4797 24.5625 24.0625 24.5625C26.4797 24.5625 28.4375 26.5203 28.4375 28.9375Z" fill="#42526B"/>
</g>
<defs>
<clipPath id="clip0_385_1057">
<rect width="35" height="35" fill="white" transform="translate(0 0.5)"/>
</clipPath>
</defs>
</svg>
