<svg width="15" height="25" viewBox="0 0 15 25" fill="none" xmlns="http://www.w3.org/2000/svg">
<path d="M10.3343 10.3865C11.3511 9.78206 12.1378 8.86917 12.5743 7.78705C13.0109 6.70492 13.0733 5.51294 12.7522 4.39287C12.4311 3.2728 11.7441 2.28611 10.7958 1.58327C9.84751 0.880428 8.69008 0.5 7.5 0.5C6.30992 0.5 5.15249 0.880428 4.20422 1.58327C3.25594 2.28611 2.56887 3.2728 2.24776 4.39287C1.92665 5.51294 1.98914 6.70492 2.42568 7.78705C2.86223 8.86917 3.64888 9.78206 4.66568 10.3865C3.28748 10.9374 2.10801 11.8764 1.27722 13.0842C0.446427 14.292 0.00184745 15.714 0 17.1693V21.1679C0.00108263 22.0513 0.360601 22.8982 0.999695 23.5229C1.63879 24.1475 2.50528 24.4989 3.40909 24.5H11.5909C12.4947 24.4989 13.3612 24.1475 14.0003 23.5229C14.6394 22.8982 14.9989 22.0513 15 21.1679V17.1693C14.9982 15.714 14.5536 14.292 13.7228 13.0842C12.892 11.8764 11.7125 10.9374 10.3343 10.3865Z" fill="#42526B"/>
</svg>
