<svg width="28" height="28" viewBox="0 0 28 28" fill="none" xmlns="http://www.w3.org/2000/svg">
<path d="M7.0675 21.3125V17.9375C7.06531 16.7809 7.33867 15.6405 7.86493 14.6105C8.39119 13.5806 9.15522 12.6909 10.0938 12.015C9.46082 11.2736 9.03273 10.3796 8.85197 9.42168C8.6712 8.46378 8.74404 7.47526 9.06326 6.5542C8.24426 6.11729 7.28963 6.00862 6.39338 6.25026C5.49713 6.49191 4.72652 7.06575 4.23817 7.85516C3.74981 8.64456 3.58036 9.5903 3.76424 10.5002C3.94812 11.41 4.47155 12.2157 5.22813 12.7535C4.27177 13.168 3.45728 13.8528 2.8847 14.7238C2.31212 15.5947 2.00637 16.6139 2.005 17.6563V20.1875C2.0059 20.9332 2.3025 21.648 2.82975 22.1753C3.35701 22.7025 4.07186 22.9991 4.8175 23H7.45282C7.19994 22.4734 7.06828 21.8967 7.0675 21.3125Z" fill="#42526B"/>
<path d="M23.5319 12.7535C24.2885 12.2157 24.8119 11.41 24.9958 10.5002C25.1797 9.5903 25.0102 8.64456 24.5218 7.85516C24.0335 7.06575 23.2629 6.49191 22.3666 6.25026C21.4704 6.00862 20.5158 6.11729 19.6968 6.5542C20.016 7.47526 20.0888 8.46378 19.908 9.42168C19.7273 10.3796 19.2992 11.2736 18.6663 12.015C19.6048 12.6909 20.3688 13.5806 20.8951 14.6105C21.4213 15.6405 21.6947 16.7809 21.6925 17.9375V21.3125C21.6917 21.8967 21.5601 22.4734 21.3072 23H23.9425C24.6882 22.9991 25.403 22.7025 25.9303 22.1753C26.4575 21.648 26.7541 20.9332 26.755 20.1875V17.6563C26.7536 16.6139 26.4479 15.5947 25.8753 14.7238C25.3027 13.8528 24.4882 13.168 23.5319 12.7535Z" fill="#42526B"/>
<path d="M16.758 11.8932C17.5968 11.383 18.2458 10.6125 18.606 9.69909C18.9661 8.78572 19.0177 7.77961 18.7528 6.83421C18.4879 5.88881 17.921 5.05599 17.1387 4.46275C16.3564 3.8695 15.4015 3.5484 14.4197 3.5484C13.4379 3.5484 12.483 3.8695 11.7007 4.46275C10.9183 5.05599 10.3515 5.88881 10.0866 6.83421C9.82166 7.77961 9.87321 8.78572 10.2334 9.69909C10.5935 10.6125 11.2425 11.383 12.0814 11.8932C10.9443 12.3582 9.97128 13.1508 9.28588 14.1702C8.60048 15.1896 8.2337 16.3899 8.23218 17.6183V20.9933C8.23307 21.7389 8.52967 22.4538 9.05693 22.9811C9.58418 23.5083 10.299 23.8049 11.0447 23.8058H17.7947C18.5403 23.8049 19.2552 23.5083 19.7824 22.9811C20.3097 22.4538 20.6063 21.7389 20.6072 20.9933V17.6183C20.6057 16.3899 20.2389 15.1896 19.5535 14.1702C18.8681 13.1508 17.895 12.3582 16.758 11.8932Z" fill="#42526B"/>
</svg>
