<svg width="28" height="28" viewBox="0 0 28 28" fill="none" xmlns="http://www.w3.org/2000/svg">
<path d="M10.0683 11.8931C10.9072 11.3829 11.5561 10.6124 11.9163 9.69903C12.2764 8.78566 12.328 7.77955 12.0631 6.83415C11.7982 5.88875 11.2313 5.05593 10.449 4.46268C9.66668 3.86944 8.7118 3.54834 7.72998 3.54834C6.74816 3.54834 5.79328 3.86944 5.01096 4.46268C4.22864 5.05593 3.6618 5.88875 3.39688 6.83415C3.13197 7.77955 3.18352 8.78566 3.54367 9.69903C3.90382 10.6124 4.55281 11.3829 5.39167 11.8931C4.25465 12.3581 3.28159 13.1507 2.59618 14.1701C1.91078 15.1896 1.544 16.3898 1.54248 17.6182V20.9932C1.54337 21.7389 1.83998 22.4537 2.36723 22.981C2.89448 23.5082 3.60933 23.8048 4.35498 23.8057H11.105C11.8506 23.8048 12.5655 23.5082 13.0927 22.981C13.62 22.4537 13.9166 21.7389 13.9175 20.9932V17.6182C13.916 16.3898 13.5492 15.1896 12.8638 14.1701C12.1784 13.1507 11.2053 12.3581 10.0683 11.8931Z" fill="#42526B"/>
<path d="M20.7158 11.8448C21.5546 11.3346 22.2036 10.5641 22.5638 9.65069C22.9239 8.73732 22.9755 7.73121 22.7105 6.78581C22.4456 5.84041 21.8788 5.00759 21.0965 4.41434C20.3141 3.8211 19.3593 3.5 18.3774 3.5C17.3956 3.5 16.4407 3.8211 15.6584 4.41434C14.8761 5.00759 14.3093 5.84041 14.0443 6.78581C13.7794 7.73121 13.831 8.73732 14.1911 9.65069C14.5513 10.5641 15.2003 11.3346 16.0391 11.8448C14.9021 12.3098 13.929 13.1024 13.2436 14.1218C12.5582 15.1412 12.1915 16.3415 12.1899 17.5699V20.9449C12.1908 21.6905 12.4874 22.4054 13.0147 22.9327C13.5419 23.4599 14.2568 23.7565 15.0024 23.7574H21.7524C22.4981 23.7565 23.2129 23.4599 23.7402 22.9327C24.2674 22.4054 24.564 21.6905 24.5649 20.9449V17.5699C24.5634 16.3415 24.1966 15.1412 23.5112 14.1218C22.8258 13.1024 21.8528 12.3098 20.7158 11.8448Z" fill="#42526B"/>
</svg>
