<?xml version="1.0" encoding="UTF-8"?>
<!DOCTYPE svg PUBLIC "-//W3C//DTD SVG 1.1//EN" "http://www.w3.org/Graphics/SVG/1.1/DTD/svg11.dtd">
<!-- Creator: CorelDRAW 2020 (64-Bit) -->
<svg xmlns="http://www.w3.org/2000/svg" xml:space="preserve" width="6.31986in" height="1.86436in" version="1.1" style="shape-rendering:geometricPrecision; text-rendering:geometricPrecision; image-rendering:optimizeQuality; fill-rule:evenodd; clip-rule:evenodd"
viewBox="0 0 6548.52 1931.81"
 xmlns:xlink="http://www.w3.org/1999/xlink"
 xmlns:xodm="http://www.corel.com/coreldraw/odm/2003">
 <defs>
  <style type="text/css">
   <![CDATA[
    .fil0 {fill:none}
    .fil1 {fill:#F7C6A6;fill-rule:nonzero}
   ]]>
  </style>
 </defs>
 <g id="Layer_x0020_1">
  <metadata id="CorelCorpID_0Corel-Layer"/>
  <rect class="fil0" y="-0" width="6548.52" height="1931.81"/>
  <path class="fil1" d="M1590.6 757.04c-1.56,-11.31 6.34,-21.75 17.64,-23.31 11.31,-1.56 21.75,6.34 23.31,17.64 3.13,22.21 13.43,35.38 21.14,45.23 21.45,27.43 32.75,41.87 -15.63,78.21 -3.68,2.76 -6.3,5.14 -7.64,7.2l-0.16 0.24 -0.07 0.5c0.49,5.6 4.54,11.72 10.2,16.81 3.64,3.27 7.78,5.92 11.97,7.6 3.55,1.43 7.05,2.13 10.14,1.86 2.17,-0.19 4.18,-1.06 5.75,-2.81 0.6,-0.67 1.24,-1.29 1.9,-1.86 32.37,-28.98 46.87,-11.78 67.39,12.59 8.82,10.46 19.89,23.61 37.22,27.72 24.56,5.83 57.82,4.08 92.66,-4.7 21.59,-5.45 43.57,-13.57 64.29,-24.25 7.91,-9.11 15.59,-18.57 23.02,-28.43 12.32,-16.33 26.34,-24.86 36.12,-26.98 9.59,-2.07 18.11,0.21 24.33,6.27 6.88,6.7 9.33,15.86 5.82,26.61 -2.98,9.1 -12.85,22.22 -32.78,36.43 -9.69,6.91 -19.86,13.24 -30.33,18.99 -47.78,53.55 -103.21,95.14 -164.54,128.25 -73.72,39.8 -155.92,67.2 -243.63,88.44 -56.43,13.65 -89.57,17.84 -105.72,15.84 -24.23,-2.99 -31.89,-15.07 -26.48,-33.7 2.44,-8.42 10.03,-17.08 21.34,-25.48 26.22,-19.48 81.88,-46.43 132.96,-64.41 28.49,-10.04 58.09,-21.22 81.29,-32.31l0 -0.08c11.85,-5.66 21.9,-11.03 28.89,-15.78 -69.11,-13.88 -144.86,-34.84 -208.13,-162.5 -23.13,-46.65 -48.5,-92.66 -76.29,-137.42 -26.19,-42.18 -54.54,-83.23 -85.19,-122.64 -54.95,-70.64 -110.52,-124.74 -165.47,-164.8 -59.49,-43.38 -118.41,-70.47 -175.09,-84.44 -147.17,-36.29 -286.11,18.54 -374.02,106.44 -33.62,33.62 -59.66,71.9 -75.67,111.54 -15.74,38.96 -21.86,79.3 -16.02,117.79 10.51,69.18 60.48,133.46 163.88,174.57 41.71,16.57 84.83,23.33 128.6,23.02 4.59,-6.89 9.97,-13.51 15.98,-19.81 22.46,-23.55 54.12,-42.81 86.78,-56.04 19.48,-7.9 39.66,-13.76 58.68,-17.17 39.88,-7.16 69.22,-4.63 85.32,3.45 11.39,5.71 18.27,14.19 20.33,24.77 1.97,10.1 -0.89,20.52 -8.83,30.57 -12.43,15.73 -41.92,33.44 -90.07,47.75 -47.17,14.02 -94.8,23.93 -142.25,26.89 -2.4,7.7 -3.09,15.62 -1.65,23.64 0.62,3.48 1.73,7.22 3.35,11.21 1.94,4.79 5.78,8.55 10.81,10.89l0.76 0.38c5.81,2.47 13.08,3.22 21.08,1.85 8.83,-1.51 19.3,-5.7 30.07,-10.02 17.43,-6.98 35.58,-14.24 55.64,-15.11l0.53 -0.02c29.09,-1.11 55.13,11.29 89.19,27.5l1.06 0.54c5.73,2.73 11.72,5.58 18.52,8.72 20.6,9.51 44.17,19.59 67.97,27.53 23.48,7.83 47.69,13.81 70.32,15.48 28.16,2.08 50.36,-2.69 66.98,-12.5 18.66,-11.02 30.89,-28.95 37.05,-50.94 4.52,-16.13 5.87,-34.39 4.22,-53.82 -77.47,-76.63 -143.98,-166.19 -165.1,-210.32 -4.21,-8.8 -5.18,-16.66 -3.48,-23.43 2.79,-11.03 10.2,-17.33 21.32,-19.25 5.56,-0.96 12.11,-0.35 19.24,1.71 16.33,4.72 40.8,19.19 63.55,40.82 52.96,50.39 87.31,113.79 100.4,173.14 1.33,6.02 2.44,12.01 3.33,17.95 10.75,10.3 21.68,20.32 32.72,29.88 47.04,40.75 95.11,72.88 135.66,82.79 8.8,-1.63 17.5,-3.09 26.05,-4.38 10.47,-1.57 20.57,-0.95 27.14,0.67 0.86,0.17 1.73,0.4 2.59,0.69 6.95,2.37 12.05,6.79 14.7,12.94 4.72,10.92 2.13,20.51 -9.24,27.53 -4.5,2.77 -12.83,5.3 -25.68,6.51 -11.27,1.07 -23.04,0.35 -35.18,-1.9 -32.26,6.27 -65.59,14.89 -98.03,26.11 -59.44,20.55 -116.35,49.79 -158.74,89.05l1.84 2.28c37.53,46.83 63.17,101.7 68.27,155.94 6.22,66.11 -7.47,111.31 -28.95,136.67 -10.65,12.57 -23.33,20.65 -36.83,24.4 -13.89,3.85 -28.32,3.01 -42.07,-2.33 -23.4,-9.08 -44.63,-31.44 -56.5,-65.79 -7.16,-20.72 -12.04,-40.37 -14.84,-58.96 -11.73,-77.99 10.66,-141.68 52.82,-192.82 -29.77,-29.66 -64.85,-53.93 -101.5,-69.05 -41.14,-16.97 -93.43,-33.86 -153.24,-46.11 -41.01,-8.41 -85.51,-14.64 -132.28,-17.22 5.99,3.47 13.2,7.18 21.24,11.01l1.52 0.8c22.98,10.85 51.89,21.76 79.77,31.58 51.08,17.99 106.74,44.94 132.96,64.41 11.32,8.4 18.9,17.06 21.34,25.48 5.39,18.6 -2.27,30.71 -26.48,33.7 -16.15,2 -49.29,-2.18 -105.72,-15.84 -82.36,-19.93 -150.23,-45.31 -210.84,-81.18 -60.82,-36 -114.08,-82.36 -167,-144.12 -17.62,-20.56 -47.43,-51.69 -70.95,-70.15 3.43,9.36 8.5,21.27 15.47,36.13 90.47,192.78 228.17,282.43 382.37,382.82 44.35,28.87 90.04,58.62 134.94,90.78 144.87,103.74 200.88,175.53 224.32,213.89 23.44,-38.36 79.45,-110.15 224.33,-213.89 53.67,-38.43 111.96,-73.84 170.07,-109.13 114.56,-69.58 228.41,-138.73 310.05,-235.8 80.99,-96.31 119.63,-212.29 119.63,-322.81 0,-60.76 -11.67,-119.75 -34.39,-172.76 -22.6,-52.75 -56.13,-99.63 -99.91,-136.45 -62.65,-52.69 -146.82,-85.09 -250.78,-85.09 -56.45,0 -110.02,12.08 -158.24,33.77 -50.25,22.6 -94.76,55.57 -130.75,96.14 -16.53,18.63 -23.69,35.98 -24.06,49.72 -0.16,5.96 1.04,11.03 3.3,14.9 1.87,3.2 4.48,5.57 7.61,6.85 5.18,2.12 12.33,1.95 20.89,-1.22 18.43,-6.81 31.99,-25.1 45.16,-42.87 11.79,-15.91 23.35,-31.5 39.37,-42.66l1.52 -0.96c21.12,-14.28 46.24,-22.13 68.56,-22.11 14.6,0.02 28.34,3.3 39.68,10.2 12.39,7.53 21.65,18.98 25.99,34.69 4.09,14.81 3.48,33.22 -3.71,55.36 1.5,0.84 3.76,1.91 6.97,3.26 15.02,6.31 41.72,-2.12 73.52,-12.17 10.92,-3.45 22.39,-7.08 37.22,-11.12 63.05,-17.18 121.54,-12.1 169.46,7.64 30.13,12.42 56.1,30.6 76.46,52.7 20.55,22.31 35.46,48.72 43.25,77.33 9.89,36.29 8.27,75.87 -7.8,114.89 -9.37,22.73 -24.58,39.29 -42.07,50.53 -20.45,13.15 -44.12,18.93 -65.07,18.81 -12.07,-0.07 -23.26,-1.81 -33.31,-4.9 -17.7,-5.43 -32.21,-15.05 -42.39,-27.17 -10.78,-12.84 -16.72,-28.46 -16.63,-45.09 0.04,-6.71 1.05,-13.47 3.1,-20.14 6.31,-20.58 18.14,-34.01 32.17,-41.71 11.23,-6.16 23.62,-8.45 35.6,-7.68 11.66,0.75 23.02,4.4 32.55,10.16 13.71,8.29 24.12,21.16 27.34,36.6 2.32,11.17 -4.85,22.13 -16.03,24.45 -11.17,2.32 -22.13,-4.85 -24.45,-16.03 -0.73,-3.52 -3.89,-6.94 -8.23,-9.56 -4.07,-2.46 -8.89,-4.02 -13.78,-4.34 -4.56,-0.29 -9.15,0.5 -13.09,2.66 -5.2,2.86 -9.78,8.45 -12.58,17.59 -0.87,2.84 -1.31,5.58 -1.32,8.16 -0.04,6.54 2.49,12.92 7.07,18.38 5.18,6.17 12.97,11.2 22.8,14.21 6.4,1.97 13.57,3.08 21.34,3.12 13.67,0.07 29.16,-3.71 42.57,-12.33 10.9,-7.01 20.39,-17.31 26.2,-31.43 12.43,-30.18 13.74,-60.6 6.18,-88.33 -6,-22.05 -17.68,-42.61 -33.86,-60.18 -16.39,-17.79 -37.36,-32.46 -61.72,-42.5 -40.03,-16.49 -89.3,-20.63 -142.9,-6.02 -10.55,2.87 -23.4,6.94 -35.6,10.79 -39.56,12.51 -72.78,23 -102.01,10.71 -14.51,-6.1 -23.15,-13.11 -28.03,-20.66 -6.91,-10.71 -6.6,-20.81 -3.18,-30.56 5.36,-15.27 6.32,-26.56 4.14,-34.44 -1.31,-4.76 -4.05,-8.19 -7.69,-10.4 -4.68,-2.85 -11,-4.21 -18.15,-4.21 -14.42,-0.01 -30.96,5.27 -45.22,14.87l-1.22 0.92c-10.66,7.43 -20.14,20.21 -29.81,33.27 -16.81,22.69 -34.13,46.05 -64.1,57.12 -18.68,6.91 -36.18,6.49 -50.68,0.57 -11.9,-4.87 -21.45,-13.22 -27.85,-24.17 -6,-10.26 -9.18,-22.8 -8.8,-36.76 0.61,-22.68 10.88,-49.57 34.43,-76.11 39.95,-45.03 89.2,-81.55 144.67,-106.5 53.53,-24.08 112.87,-37.49 175.24,-37.49 114.26,0 207.41,36.16 277.33,94.97 48.97,41.18 86.34,93.33 111.41,151.83 24.96,58.25 37.79,122.76 37.79,188.95 0,119.59 -41.83,245.1 -129.5,349.36 -86.01,102.28 -202.76,173.19 -320.25,244.55 -56.46,34.29 -113.1,68.69 -167.31,107.51 -177.51,127.1 -213.6,200.4 -224.71,222.97 -6.4,12.99 -9.64,19.5 -23.73,19.5 -14.18,0 -17.34,-6.5 -23.73,-19.5 -11.12,-22.58 -47.22,-95.86 -224.72,-222.97 -46.23,-33.1 -90.42,-61.87 -133.32,-89.81 -159.41,-103.77 -301.75,-196.45 -397.27,-399.99 -17.9,-38.16 -25.18,-62.43 -25.15,-76.56 0.03,-21.91 10.57,-31.2 28.45,-31.07l0.08 0c9.2,0.07 19.8,4.55 30.95,11.93 27.82,18.4 67.97,59.69 89.97,85.36 49.87,58.2 99.82,101.75 156.63,135.38 57.02,33.75 121.26,57.72 199.51,76.65 16.45,3.98 30.53,7.09 42.44,9.43 -25.18,-13.21 -57.29,-27.21 -88.02,-38.02 -28.56,-10.06 -58.59,-21.43 -83.71,-33.31l-1.62 -0.69c-28.1,-13.42 -50.03,-28.17 -57.98,-43.88 -1.71,-3.37 -2.86,-6.7 -3.5,-9.92 -1.17,-5.96 -0.67,-11.67 1.29,-16.9 0.3,-0.93 0.67,-1.86 1.11,-2.76 2.9,-5.96 7.65,-10.69 13.88,-13.84 2.89,-1.46 6.02,-2.55 9.32,-3.19l0.01 0.05c1.41,-0.27 2.86,-0.4 4.36,-0.38l12.93 0.38c-2.1,-3.24 -3.92,-6.71 -5.41,-10.39 -2.57,-6.35 -4.43,-12.86 -5.62,-19.47 -1.87,-10.41 -1.9,-20.5 -0.35,-30.22 -43.01,-1.36 -85.56,-9.23 -127.13,-25.75 -119.1,-47.35 -177,-123.72 -189.62,-206.79 -6.98,-45.94 0.14,-93.63 18.6,-139.32 18.19,-45.02 47.34,-88.06 84.74,-125.46 96.98,-96.97 250.45,-157.41 413.2,-117.28 61.55,15.17 125.34,44.46 189.5,91.24 58.24,42.46 116.68,99.2 173.88,172.74 31.4,40.38 60.58,82.64 87.62,126.2 28.38,45.71 54.41,92.93 78.24,140.99 57.68,116.38 127.83,130.14 190.53,142.43l5.34 1.05c3.3,0.64 6.43,1.73 9.32,3.19 6.23,3.15 10.97,7.87 13.88,13.84l-0.07 0.03c2.9,5.95 3.83,12.61 2.46,19.63 -0.63,3.21 -1.79,6.55 -3.5,9.92 -7.95,15.71 -29.89,30.46 -57.98,43.88l-0.03 -0.07c-25.44,12.15 -56.15,23.79 -85.31,34.07 -30.73,10.82 -62.84,24.82 -88.03,38.03 11.92,-2.34 25.99,-5.45 42.45,-9.44 84.44,-20.44 163.37,-46.72 233.76,-84.72 30.43,-16.43 59.29,-35.08 86.32,-56.43 -34.95,6.82 -68.38,7.26 -94.86,0.98 -30.37,-7.21 -46.44,-26.29 -59.24,-41.48 -4.12,-4.9 -7.13,-8.45 -8.29,-8.16 -8.97,9.3 -19.95,13.96 -31.61,14.98 -9.66,0.84 -19.65,-0.98 -29.08,-4.78 -8.78,-3.53 -17.15,-8.82 -24.27,-15.22 -12.94,-11.63 -22.35,-27.43 -23.8,-44.01 -0.81,-9.26 1.27,-17.48 5.96,-25.28l0.9 -1.53c4.16,-6.43 10.05,-12.12 17.52,-17.73 14.69,-11.03 12.33,-14.05 7.86,-19.77 -10.65,-13.61 -24.87,-31.8 -29.55,-64.98zm-732.43 109.25c31.84,-4.49 63.92,-12 95.95,-21.52 33.1,-9.84 54.12,-20.02 64.56,-28.83 -10.74,-2.19 -28.3,-1.72 -52.37,2.61 -15.92,2.86 -33.26,7.94 -50.42,14.9 -20.99,8.51 -41.25,19.69 -57.72,32.84zm87.19 109.17c-10.36,0.44 -21.9,4.32 -33.38,8.77 12.26,2.03 24.26,4.26 35.98,6.67 62.62,12.83 117.47,30.56 160.69,48.38 41.39,17.07 80.85,44.22 114.24,77.27 46.9,-43.29 108.82,-75.23 173.1,-97.45 14.15,-4.89 28.39,-9.31 42.59,-13.28 -31.18,-17.02 -63.16,-40.52 -94.2,-67.41l-4.17 -3.64c-1.04,9.31 -2.76,18.31 -5.16,26.9 -8.99,32.11 -27.39,58.61 -55.83,75.4 -23.7,14 -53.94,20.89 -90.94,18.17 -26.17,-1.93 -53.77,-8.71 -80.37,-17.58 -26.26,-8.75 -51.06,-19.32 -72.34,-29.14 -6.29,-2.9 -12.78,-5.99 -18.97,-8.94l-1.1 -0.48c-28.98,-13.8 -51.13,-24.34 -70.02,-23.61l-0.12 0.01zm329.91 -164.46c-15.81,-33.55 -38.94,-66.45 -68.8,-94.86 -4.9,-4.67 -9.79,-8.87 -14.54,-12.59 19.7,30.17 48.97,68.5 83.34,107.44zm-52.94 366.89c-32.36,41.68 -49.12,93.03 -39.75,155.32 2.5,16.66 6.75,33.9 12.9,51.68 7.61,22.03 19.69,35.77 32.38,40.7 5.41,2.1 10.97,2.47 16.17,1.03 5.6,-1.55 11.18,-5.28 16.26,-11.28 15.11,-17.83 24.46,-52.49 19.4,-106.24 -4.21,-44.8 -25.7,-90.94 -57.35,-131.21z"/>
  <path class="fil1" d="M2684.21 790.53l-21.76 -39.15c-32.63,35.53 -89.92,71.06 -146.47,71.06 -101.52,0 -167.5,-75.41 -167.5,-208.11 0,-131.97 65.26,-209.56 162.43,-209.56 81.94,0 126.9,42.78 129.07,134.87l43.51 -7.98c-2.17,-115.29 -63.81,-171.85 -171.13,-171.85 -124,0 -212.46,94.26 -212.46,254.51 0,158.8 88.46,253.06 212.46,253.06 69.61,0 134.15,-36.25 171.86,-76.86zm-357.12 131.15l0 493.08 180.55 0c95.72,0 145.02,-50.03 145.02,-130.52 0,-73.96 -40.61,-113.84 -107.32,-125.44 44.96,-16.68 73.96,-52.94 73.96,-110.22 0,-87.01 -53.66,-126.9 -139.95,-126.9l-152.27 0zm83.61 600.24l-83.61 0 0 19.17 30.87 0 0 96.16 21.71 0 0 -96.16 31.04 0 0 -19.17zm52.54 115.32l78.18 0 0 -18.99 -57.49 0 0 -30.87 46.97 0 0 -18.83 -46.97 0 0 -27.47 57.49 0 0 -19.17 -78.18 0 0 115.32zm156.67 -78.86l53.25 78.86 19.17 0 0 -115.32 -21.88 0 0 79.03 -53.42 -79.03 -18.66 0 0 115.32 21.54 0 0 -78.86zm135.47 78.86l42.91 0c29,0 50.71,-20.35 50.71,-57.49 0,-37.31 -21.71,-57.83 -50.71,-57.83l-42.91 0 0 115.32zm21.71 -18.99l0 -77.33 18.49 0c19.16,0 31.2,13.57 31.2,38.84 0,24.93 -12.04,38.5 -31.2,38.5l-18.49 0zm128.85 18.99l78.18 0 0 -18.99 -57.49 0 0 -30.87 46.97 0 0 -18.83 -46.97 0 0 -27.47 57.49 0 0 -19.17 -78.18 0 0 115.32zm230.27 -20.01c-3.22,1.69 -7.46,2.88 -10.52,2.88 -10.51,0 -20.35,-14.41 -29.68,-25.44 15.94,-2.88 27.99,-16.28 27.99,-35.1 0,-22.73 -14.25,-37.65 -34.77,-37.65l-48.17 0 0 115.32 21.71 0 0 -41.89 6.78 0c12.55,8.65 27.81,43.58 50.88,43.58 6.27,0 13.91,-2.04 17.97,-4.41l-2.2 -17.3zm-73.43 -76.32l20.69 0c10.68,0 18.48,6.27 18.48,18.83 0,11.53 -7.8,18.48 -18.48,18.48l-20.69 0 0 -37.31zm160.91 -18.99l0 115.32 48.5 0c23.06,0 35.44,-11.87 35.44,-31.89 0,-15.77 -8.48,-24.93 -22.56,-28.15 8.99,-4.24 14.76,-12.55 14.76,-24.76 0,-20.86 -12.72,-30.53 -34.26,-30.53l-41.89 0zm21.71 46.47l0 -27.64 17.47 0c10.35,0 15.09,4.24 15.09,13.56 0,8.99 -5.09,14.08 -15.6,14.08l-16.96 0zm0 50.03l0 -29.85 22.22 0c11.87,0 17.47,5.43 17.47,15.43 0,8.99 -4.58,14.42 -15.77,14.42l-23.91 0zm118 18.82l78.18 0 0 -18.99 -57.49 0 0 -30.87 46.97 0 0 -18.83 -46.97 0 0 -27.47 57.49 0 0 -19.17 -78.18 0 0 115.32zm208.9 -85.81l8.99 -17.3c-10.17,-9.33 -22.22,-13.91 -38.16,-13.91 -29,0 -52.23,22.05 -52.23,59.53 0,37.14 23.24,59.19 52.23,59.19 15.09,0 32.56,-6.11 41.89,-13.74l0 -54.95 -46.13 0 0 18.83 25.78 0 0 23.74c-5.09,3.9 -12.21,5.94 -20.01,5.94 -18.15,0 -31.38,-12.89 -31.38,-39.01 0,-25.1 12.55,-39.35 32.56,-39.35 9.66,0 18.31,3.9 26.46,11.03zm71.19 -29.51l0 115.32 21.71 0 0 -115.32 -21.71 0zm106.13 36.46l53.25 78.86 19.17 0 0 -115.32 -21.88 0 0 79.03 -53.42 -79.03 -18.66 0 0 115.32 21.54 0 0 -78.86zm157.01 0l53.25 78.86 19.17 0 0 -115.32 -21.88 0 0 79.03 -53.42 -79.03 -18.66 0 0 115.32 21.54 0 0 -78.86zm135.47 -36.46l0 115.32 21.71 0 0 -115.32 -21.71 0zm106.13 36.46l53.25 78.86 19.17 0 0 -115.32 -21.88 0 0 79.03 -53.42 -79.03 -18.66 0 0 115.32 21.54 0 0 -78.86zm210.43 -6.95l8.99 -17.3c-10.17,-9.33 -22.22,-13.91 -38.16,-13.91 -29,0 -52.23,22.05 -52.23,59.53 0,37.14 23.24,59.19 52.23,59.19 15.09,0 32.56,-6.11 41.89,-13.74l0 -54.95 -46.13 0 0 18.83 25.78 0 0 23.74c-5.09,3.9 -12.21,5.94 -20.01,5.94 -18.15,0 -31.38,-12.89 -31.38,-39.01 0,-25.1 12.55,-39.35 32.56,-39.35 9.66,0 18.31,3.9 26.46,11.03zm71.19 58.17l-4.92 20.18c6.62,4.07 20.52,9.16 34.77,9.16 24.76,0 40.02,-15.6 40.02,-36.12 0,-15.43 -8.48,-24.59 -26.29,-30.53l-17.47 -5.77c-7.12,-2.2 -11.19,-6.1 -11.19,-13.06 0,-7.97 6.45,-13.4 19.5,-13.4 9.33,0 20.35,3.06 27.81,7.8l6.11 -19.17c-7.8,-4.58 -21.37,-8.31 -34.6,-8.31 -26.12,0 -40.19,15.77 -40.19,34.43 0,15.43 7.8,24.93 22.56,29.68l17.3 5.43c9.66,3.06 14.07,6.96 14.07,14.25 0,10.35 -8.31,14.93 -18.66,14.93 -11.02,0 -21.54,-4.41 -28.83,-9.5zm164.98 29.51l-6.27 22.39 11.87 4.92c4.92,-8.65 11.87,-27.64 11.87,-39.85 0,-8.48 -4.92,-14.08 -13.06,-14.08 -8.14,0 -12.72,5.09 -12.72,14.08 0,6.27 2.88,11.19 8.31,12.55zm111.22 -1.86l78.18 0 0 -18.99 -57.49 0 0 -30.87 46.97 0 0 -18.83 -46.97 0 0 -27.47 57.49 0 0 -19.17 -78.18 0 0 115.32zm222.97 -112.27l0 -3.05 -23.91 0 -25.27 43.41 -25.27 -43.41 -23.74 0 0 3.05 33.92 54.78 -33.92 54.44 0 3.05 23.91 0 25.1 -43.25 24.93 43.25 24.25 0 0 -3.05 -34.09 -54.44 34.09 -54.78zm100.2 -3.05l-47.48 0 0 115.32 21.71 0 0 -32.39 25.78 0c19.17,0 35.95,-15.43 35.95,-41.21 0,-28.66 -16.79,-41.72 -35.95,-41.72zm-4.75 63.94l-21.03 0 0 -44.94 21.03 0c10.35,0 18.66,7.8 18.66,22.56 0,13.91 -8.31,22.39 -18.66,22.39zm94.6 51.38l78.18 0 0 -18.99 -57.49 0 0 -30.87 46.97 0 0 -18.83 -46.97 0 0 -27.47 57.49 0 0 -19.17 -78.18 0 0 115.32zm230.27 -20.01c-3.22,1.69 -7.46,2.88 -10.52,2.88 -10.51,0 -20.35,-14.41 -29.68,-25.44 15.94,-2.88 27.99,-16.28 27.99,-35.1 0,-22.73 -14.25,-37.65 -34.77,-37.65l-48.17 0 0 115.32 21.71 0 0 -41.89 6.78 0c12.55,8.65 27.81,43.58 50.88,43.58 6.27,0 13.91,-2.04 17.97,-4.41l-2.2 -17.3zm-73.43 -76.32l20.69 0c10.68,0 18.48,6.27 18.48,18.83 0,11.53 -7.8,18.48 -18.48,18.48l-20.69 0 0 -37.31zm194.32 -18.99l-83.61 0 0 19.17 30.87 0 0 96.16 21.71 0 0 -96.16 31.04 0 0 -19.17zm173.63 100.06l-8.65 -17.81c-7.12,6.96 -18.31,14.59 -29.68,14.59 -18.66,0 -30.19,-13.4 -30.19,-39.01 0,-25.1 10.86,-39.35 27.48,-39.35 13.74,0 21.03,7.47 21.37,23.91l19.5 -3.9c-0.51,-26.97 -14.76,-40.19 -40.02,-40.19 -29,0 -50.54,22.05 -50.54,59.53 0,37.14 21.54,59.19 50.54,59.19 16.28,0 31.38,-8.14 40.19,-16.96zm81.37 -100.06l-38.84 115.32 21.54 0 7.46 -23.91 43.58 0 7.29 23.91 21.54 0 -37.65 -115.32 -24.93 0zm-4.41 75.3l16.79 -53.76 16.11 53.76 -32.9 0zm212.63 20.01c-3.22,1.69 -7.46,2.88 -10.52,2.88 -10.51,0 -20.35,-14.41 -29.68,-25.44 15.94,-2.88 27.99,-16.28 27.99,-35.1 0,-22.73 -14.25,-37.65 -34.77,-37.65l-48.17 0 0 115.32 21.71 0 0 -41.89 6.78 0c12.55,8.65 27.81,43.58 50.88,43.58 6.27,0 13.91,-2.04 17.97,-4.41l-2.2 -17.3zm-73.43 -76.32l20.69 0c10.68,0 18.48,6.27 18.48,18.83 0,11.53 -7.8,18.48 -18.48,18.48l-20.69 0 0 -37.31zm124.44 96.33l78.18 0 0 -18.99 -57.49 0 0 -30.87 46.97 0 0 -18.83 -46.97 0 0 -27.47 57.49 0 0 -19.17 -78.18 0 0 115.32zm-3609.47 -498.02l0 -174.76 99.34 0c60.91,0 96.44,26.83 96.44,87.74 0,57.28 -39.15,87.01 -100.79,87.01l-94.99 0zm0 232.76l0 -187.08 114.57 0c71.06,0 113.85,31.18 113.85,97.16 0,55.84 -33.36,89.92 -100.79,89.92l-127.62 0zm351.58 42.78l320.5 0 0 -42.78 -274.09 0 0 -192.88 229.13 0 0 -42.78 -229.13 0 0 -171.86 274.09 0 0 -42.78 -320.5 0 0 493.08zm722.83 -396.64l22.48 -37.71c-42.78,-42.06 -90.64,-65.99 -158.07,-65.99 -124,0 -223.33,94.26 -223.33,254.51 0,158.8 99.34,253.06 223.33,253.06 63.81,0 134.87,-26.83 174.03,-60.18l0 -207.38 -192.16 0 0 42.79 147.2 0 0 137.05c-29.73,25.38 -78.31,42.78 -126.9,42.78 -99.34,0 -176.93,-74.69 -176.93,-208.11 0,-131.97 76.86,-209.56 179.1,-209.56 53.66,0 93.54,21.76 131.25,58.74zm123.17 -96.44l0 493.08 47.86 0 0 -493.08 -47.86 0zm202.2 79.77l289.32 413.31 43.5 0 0 -493.08 -47.86 0 0 414.77 -290.77 -414.77 -42.06 0 0 493.08 47.86 0 0 -413.31zm487.17 0l289.32 413.31 43.5 0 0 -493.08 -47.86 0 0 414.77 -290.77 -414.77 -42.06 0 0 493.08 47.86 0 0 -413.31zm439.32 -79.77l0 493.08 47.86 0 0 -493.08 -47.86 0zm202.2 79.77l289.32 413.31 43.5 0 0 -493.08 -47.86 0 0 414.77 -290.77 -414.77 -42.06 0 0 493.08 47.86 0 0 -413.31zm769.97 16.68l22.48 -37.71c-42.78,-42.06 -90.64,-65.99 -158.07,-65.99 -124,0 -223.33,94.26 -223.33,254.51 0,158.8 99.34,253.06 223.33,253.06 63.81,0 134.87,-26.83 174.03,-60.18l0 -207.38 -192.16 0 0 42.79 147.2 0 0 137.05c-29.73,25.38 -78.31,42.78 -126.9,42.78 -99.34,0 -176.93,-74.69 -176.93,-208.11 0,-131.97 76.86,-209.56 179.1,-209.56 53.66,0 93.54,21.76 131.25,58.74zm111.56 317.6l-11.6 44.96c26.83,18.13 82.66,41.33 142.12,41.33 99.34,0 165.33,-58.01 165.33,-145.02 0,-67.44 -40.61,-100.79 -113.12,-122.55l-87.01 -26.1c-42.79,-12.33 -67.44,-36.26 -67.44,-77.59 0,-48.59 38.43,-91.37 118.92,-91.37 44.96,0 98.61,17.4 126.9,36.98l14.5 -43.5c-31.18,-19.58 -87.74,-37.71 -142.85,-37.71 -109.49,0 -164.6,65.99 -164.6,137.77 0,62.36 36.26,99.34 94.27,116.02l86.29 24.66c57.28,15.95 84.84,41.33 84.84,85.56 0,63.08 -50.76,98.62 -117.47,98.62 -52.21,0 -102.24,-23.93 -129.07,-42.06zm-2661.99 -701.81l0 226.23 47.86 0 0 -493.08 -47.86 0 0 224.06 -286.42 0 0 -224.06 -47.86 0 0 493.08 47.86 0 0 -226.23 286.42 0zm185.69 226.23l320.5 0 0 -42.78 -274.09 0 0 -192.88 229.13 0 0 -42.78 -229.13 0 0 -171.86 274.09 0 0 -42.78 -320.5 0 0 493.08zm824.51 -51.48c-15.95,8.7 -35.53,15.95 -52.93,15.95 -59.46,0 -113.12,-99.34 -155.17,-150.1 76.86,-2.18 144.3,-59.46 144.3,-151.55 0,-101.52 -67.44,-155.9 -147.93,-155.9l-183.45 0 0 493.08 47.86 0 0 -185.63 77.59 0c46.41,33.35 112.39,192.88 206.66,192.88 25.38,0 51.48,-8.7 68.89,-18.85l-5.8 -39.88zm-347.33 -398.82l124.72 0c59.46,0 109.49,35.53 109.49,113.12 0,71.79 -50.03,111.67 -109.49,111.67l-124.72 0 0 -224.79zm420.63 -42.78l0 493.08 47.86 0 0 -493.08 -47.86 0zm174.09 414.04l-11.6 44.96c26.83,18.13 82.66,41.33 142.12,41.33 99.34,0 165.33,-58.01 165.33,-145.02 0,-67.44 -40.61,-100.79 -113.12,-122.55l-87.01 -26.1c-42.79,-12.33 -67.44,-36.26 -67.44,-77.59 0,-48.59 38.43,-91.37 118.92,-91.37 44.96,0 98.61,17.4 126.9,36.98l14.5 -43.5c-31.18,-19.58 -87.74,-37.71 -142.85,-37.71 -109.49,0 -164.6,65.99 -164.6,137.77 0,62.36 36.26,99.34 94.27,116.02l86.29 24.66c57.28,15.95 84.84,41.33 84.84,85.56 0,63.08 -50.76,98.62 -117.47,98.62 -52.21,0 -102.24,-23.93 -129.07,-42.06zm736.78 -147.19l0 226.23 47.86 0 0 -493.08 -47.86 0 0 224.06 -286.42 0 0 -224.06 -47.86 0 0 493.08 47.86 0 0 -226.23 286.42 0zm185.69 226.23l320.5 0 0 -42.78 -274.09 0 0 -192.88 229.13 0 0 -42.78 -229.13 0 0 -171.86 274.09 0 0 -42.78 -320.5 0 0 493.08zm429.33 0l163.15 0c124,0 216.81,-87.01 216.81,-245.82 0,-160.25 -92.82,-246.54 -216.81,-247.26l-163.15 0 0 493.08zm47.86 -42.78l0 -407.52 110.22 0c102.24,0 173.3,71.06 173.3,204.48 0,131.97 -71.06,203.03 -173.3,203.03l-110.22 0z"/>
 </g>
</svg>
