<?xml version="1.0" encoding="UTF-8"?>
<!DOCTYPE svg PUBLIC "-//W3C//DTD SVG 1.1//EN" "http://www.w3.org/Graphics/SVG/1.1/DTD/svg11.dtd">
<!-- Creator: CorelDRAW 2020 (64-Bit) -->
<svg xmlns="http://www.w3.org/2000/svg" xml:space="preserve" width="6.31986in" height="1.86436in" version="1.1" style="shape-rendering:geometricPrecision; text-rendering:geometricPrecision; image-rendering:optimizeQuality; fill-rule:evenodd; clip-rule:evenodd"
viewBox="0 0 6215.9 1833.69"
 xmlns:xlink="http://www.w3.org/1999/xlink"
 xmlns:xodm="http://www.corel.com/coreldraw/odm/2003">
 <defs>
  <style type="text/css">
   <![CDATA[
    .fil0 {fill:none}
    .fil1 {fill:#F5AB93;fill-rule:nonzero}
   ]]>
  </style>
 </defs>
 <g id="Layer_x0020_1">
  <metadata id="CorelCorpID_0Corel-Layer"/>
  <rect class="fil0" y="-0" width="6215.9" height="1833.69"/>
  <path class="fil1" d="M1509.8 718.58c-1.48,-10.73 6.01,-20.65 16.75,-22.13 10.73,-1.48 20.65,6.01 22.13,16.75 2.97,21.08 12.75,33.58 20.06,42.94 20.36,26.04 31.09,39.74 -14.84,74.24 -3.49,2.62 -5.98,4.88 -7.25,6.83l-0.15 0.22 -0.06 0.48c0.46,5.31 4.31,11.13 9.68,15.96 3.45,3.1 7.38,5.62 11.36,7.22 3.36,1.36 6.69,2.03 9.62,1.77 2.06,-0.18 3.97,-1.01 5.46,-2.66 0.57,-0.64 1.17,-1.22 1.8,-1.77 30.73,-27.51 44.49,-11.18 63.97,11.95 8.37,9.93 18.88,22.41 35.33,26.31 23.31,5.53 54.88,3.88 87.95,-4.46 20.49,-5.17 41.36,-12.88 61.02,-23.02 7.51,-8.64 14.8,-17.63 21.85,-26.98 11.69,-15.5 25,-23.6 34.29,-25.61 9.11,-1.96 17.19,0.2 23.09,5.95 6.53,6.36 8.86,15.06 5.52,25.26 -2.83,8.64 -12.19,21.09 -31.11,34.58 -9.2,6.56 -18.85,12.57 -28.79,18.02 -45.36,50.83 -97.96,90.31 -156.19,121.74 -69.98,37.77 -148,63.79 -231.26,83.95 -53.56,12.96 -85.02,16.93 -100.35,15.04 -23,-2.84 -30.27,-14.31 -25.13,-31.99 2.32,-8 9.52,-16.21 20.25,-24.19 24.89,-18.49 77.72,-44.07 126.21,-61.14 27.05,-9.53 55.14,-20.14 77.16,-30.66l0 -0.08c11.25,-5.37 20.79,-10.47 27.43,-14.98 -65.6,-13.17 -137.5,-33.07 -197.56,-154.24 -21.95,-44.28 -46.04,-87.95 -72.42,-130.44 -24.86,-40.04 -51.77,-79.01 -80.86,-116.42 -52.16,-67.06 -104.91,-118.41 -157.06,-156.43 -56.47,-41.17 -112.4,-66.89 -166.19,-80.16 -139.7,-34.45 -271.58,17.6 -355.02,101.03 -31.92,31.92 -56.63,68.24 -71.83,105.87 -14.94,36.98 -20.75,75.27 -15.2,111.81 9.97,65.66 57.41,126.68 155.55,165.7 39.59,15.73 80.52,22.15 122.07,21.85 4.36,-6.54 9.46,-12.82 15.17,-18.81 21.32,-22.35 51.37,-40.63 82.37,-53.2 18.49,-7.5 37.65,-13.06 55.7,-16.3 37.85,-6.8 65.7,-4.4 80.99,3.27 10.82,5.42 17.34,13.47 19.3,23.51 1.87,9.59 -0.84,19.48 -8.38,29.02 -11.8,14.93 -39.79,31.74 -85.49,45.32 -44.77,13.31 -89.98,22.72 -135.03,25.53 -2.28,7.31 -2.93,14.82 -1.56,22.44 0.59,3.3 1.64,6.85 3.18,10.64 1.84,4.55 5.49,8.12 10.26,10.34l0.72 0.36c5.52,2.34 12.42,3.06 20.01,1.75 8.38,-1.44 18.32,-5.41 28.55,-9.51 16.54,-6.62 33.77,-13.52 52.81,-14.34l0.51 -0.02c27.61,-1.05 52.33,10.71 84.66,26.11l1.01 0.52c5.44,2.59 11.13,5.3 17.58,8.27 19.55,9.03 41.93,18.6 64.52,26.13 22.29,7.43 45.27,13.11 66.75,14.69 26.73,1.97 47.8,-2.55 63.58,-11.87 17.72,-10.46 29.32,-27.48 35.17,-48.36 4.29,-15.31 5.58,-32.64 4.01,-51.09 -73.54,-72.74 -136.66,-157.75 -156.71,-199.64 -4,-8.35 -4.92,-15.82 -3.3,-22.24 2.64,-10.47 9.68,-16.45 20.23,-18.27 5.28,-0.91 11.5,-0.33 18.26,1.63 15.5,4.48 38.73,18.21 60.32,38.75 50.27,47.83 82.88,108.01 95.3,164.34 1.26,5.72 2.32,11.4 3.16,17.03 10.2,9.78 20.58,19.28 31.06,28.36 44.65,38.68 90.28,69.18 128.77,78.58 8.36,-1.55 16.61,-2.94 24.73,-4.15 9.94,-1.49 19.53,-0.9 25.77,0.64 0.82,0.16 1.64,0.38 2.46,0.66 6.6,2.25 11.43,6.45 13.95,12.28 4.48,10.37 2.02,19.47 -8.77,26.13 -4.27,2.63 -12.17,5.03 -24.37,6.18 -10.7,1.01 -21.87,0.34 -33.39,-1.8 -30.62,5.95 -62.26,14.14 -93.05,24.78 -56.42,19.5 -110.44,47.26 -150.67,84.53l1.75 2.16c35.62,44.45 59.96,96.54 64.8,148.02 5.91,62.75 -7.09,105.66 -27.48,129.73 -10.11,11.93 -22.15,19.61 -34.96,23.16 -13.18,3.66 -26.88,2.86 -39.93,-2.21 -22.21,-8.62 -42.36,-29.84 -53.63,-62.45 -6.8,-19.67 -11.43,-38.32 -14.08,-55.97 -11.14,-74.03 10.11,-134.49 50.14,-183.03 -28.26,-28.16 -61.56,-51.19 -96.35,-65.55 -39.05,-16.1 -88.69,-32.14 -145.45,-43.77 -38.93,-7.98 -81.16,-13.9 -125.56,-16.35 5.68,3.29 12.53,6.81 20.16,10.46l1.44 0.76c21.81,10.3 49.26,20.65 75.72,29.98 48.49,17.07 101.32,42.65 126.21,61.14 10.74,7.98 17.94,16.19 20.25,24.19 5.12,17.66 -2.16,29.15 -25.14,31.99 -15.33,1.9 -46.79,-2.07 -100.35,-15.03 -78.18,-18.92 -142.6,-43.01 -200.13,-77.05 -57.74,-34.17 -108.28,-78.17 -158.51,-136.8 -16.73,-19.52 -45.02,-49.06 -67.35,-66.59 3.26,8.88 8.07,20.19 14.69,34.3 85.87,182.99 216.58,268.09 362.95,363.38 42.1,27.41 85.47,55.64 128.09,86.17 137.51,98.47 190.68,166.61 212.93,203.02 22.25,-36.41 75.42,-104.55 212.93,-203.02 50.94,-36.48 106.28,-70.09 161.43,-103.58 108.74,-66.04 216.81,-131.68 294.3,-223.82 76.88,-91.42 113.55,-201.51 113.55,-306.41 0,-57.68 -11.08,-113.67 -32.64,-163.99 -21.46,-50.07 -53.27,-94.57 -94.84,-129.51 -59.47,-50.01 -139.37,-80.77 -238.05,-80.77 -53.58,0 -104.43,11.46 -150.2,32.05 -47.7,21.45 -89.95,52.74 -124.11,91.26 -15.69,17.68 -22.49,34.16 -22.84,47.19 -0.15,5.65 0.98,10.47 3.13,14.14 1.77,3.04 4.26,5.29 7.23,6.5 4.92,2.01 11.7,1.85 19.83,-1.16 17.49,-6.46 30.37,-23.83 42.86,-40.69 11.19,-15.1 22.16,-29.9 37.37,-40.5l1.44 -0.91c20.04,-13.56 43.89,-21 65.08,-20.99 13.86,0.02 26.9,3.13 37.67,9.68 11.76,7.15 20.55,18.02 24.67,32.93 3.88,14.06 3.3,31.54 -3.52,52.55 1.42,0.8 3.57,1.81 6.62,3.09 14.26,5.99 39.6,-2.01 69.78,-11.55 10.36,-3.27 21.25,-6.72 35.33,-10.55 59.85,-16.31 115.37,-11.49 160.85,7.26 28.6,11.79 53.25,29.05 72.57,50.02 19.5,21.18 33.66,46.25 41.06,73.41 9.39,34.45 7.85,72.02 -7.41,109.05 -8.89,21.58 -23.33,37.29 -39.93,47.97 -19.41,12.48 -41.88,17.97 -61.76,17.85 -11.46,-0.07 -22.08,-1.72 -31.62,-4.65 -16.8,-5.16 -30.57,-14.28 -40.23,-25.79 -10.23,-12.19 -15.87,-27.02 -15.78,-42.8 0.04,-6.37 1,-12.78 2.94,-19.11 5.99,-19.54 17.22,-32.28 30.54,-39.59 10.66,-5.85 22.42,-8.02 33.79,-7.29 11.07,0.71 21.85,4.18 30.9,9.65 13.01,7.87 22.89,20.08 25.95,34.74 2.2,10.61 -4.61,21 -15.21,23.21 -10.61,2.2 -21,-4.61 -23.21,-15.21 -0.7,-3.34 -3.69,-6.58 -7.81,-9.07 -3.86,-2.33 -8.43,-3.82 -13.08,-4.12 -4.33,-0.28 -8.68,0.47 -12.42,2.52 -4.94,2.71 -9.28,8.02 -11.94,16.69 -0.83,2.7 -1.24,5.3 -1.25,7.74 -0.03,6.21 2.37,12.27 6.71,17.44 4.92,5.86 12.31,10.63 21.64,13.49 6.08,1.87 12.88,2.92 20.25,2.96 12.98,0.07 27.67,-3.52 40.4,-11.71 10.35,-6.65 19.35,-16.43 24.87,-29.84 11.8,-28.64 13.04,-57.52 5.87,-83.85 -5.7,-20.93 -16.79,-40.44 -32.14,-57.12 -15.55,-16.89 -35.46,-30.81 -58.59,-40.34 -38,-15.66 -84.76,-19.58 -135.64,-5.72 -10.01,2.73 -22.22,6.59 -33.79,10.24 -37.55,11.87 -69.08,21.84 -96.83,10.17 -13.77,-5.79 -21.97,-12.45 -26.6,-19.61 -6.56,-10.17 -6.27,-19.75 -3.02,-29 5.09,-14.49 6,-25.21 3.93,-32.69 -1.25,-4.52 -3.85,-7.78 -7.3,-9.87 -4.44,-2.7 -10.44,-4 -17.23,-4 -13.68,-0.01 -29.39,5 -42.93,14.11l-1.16 0.88c-10.11,7.05 -19.12,19.19 -28.3,31.58 -15.96,21.54 -32.4,43.71 -60.84,54.22 -17.73,6.56 -34.35,6.16 -48.1,0.54 -11.3,-4.62 -20.36,-12.55 -26.43,-22.94 -5.69,-9.74 -8.71,-21.65 -8.36,-34.89 0.58,-21.53 10.32,-47.05 32.68,-72.25 37.92,-42.74 84.67,-77.41 137.33,-101.09 50.82,-22.86 107.13,-35.58 166.34,-35.58 108.45,0 196.88,34.33 263.25,90.14 46.49,39.09 81.96,88.59 105.75,144.12 23.69,55.29 35.87,116.53 35.87,179.35 0,113.51 -39.71,232.65 -122.92,331.61 -81.64,97.08 -192.46,164.39 -303.99,232.13 -53.59,32.55 -107.35,65.2 -158.81,102.05 -168.49,120.65 -202.75,190.22 -213.3,211.65 -6.07,12.33 -9.15,18.51 -22.53,18.51 -13.46,0 -16.46,-6.17 -22.53,-18.51 -10.56,-21.43 -44.82,-90.99 -213.3,-211.65 -43.88,-31.42 -85.83,-58.73 -126.55,-85.24 -151.31,-98.5 -286.43,-186.47 -377.09,-379.67 -17,-36.22 -23.9,-59.26 -23.87,-72.67 0.03,-20.79 10.03,-29.61 27,-29.49l0.08 0c8.74,0.07 18.79,4.32 29.37,11.32 26.4,17.46 64.52,56.65 85.4,81.03 47.33,55.25 94.75,96.58 148.68,128.5 54.13,32.03 115.1,54.78 189.37,72.76 15.62,3.78 28.98,6.73 40.29,8.95 -23.9,-12.53 -54.38,-25.82 -83.55,-36.09 -27.11,-9.55 -55.61,-20.34 -79.46,-31.62l-1.54 -0.65c-26.67,-12.74 -47.49,-26.74 -55.04,-41.65 -1.63,-3.2 -2.72,-6.36 -3.32,-9.41 -1.11,-5.65 -0.64,-11.07 1.22,-16.04 0.29,-0.88 0.64,-1.76 1.05,-2.62 2.76,-5.66 7.26,-10.15 13.17,-13.14 2.74,-1.39 5.71,-2.42 8.84,-3.03l0.01 0.05c1.34,-0.26 2.72,-0.38 4.14,-0.36l12.27 0.36c-2,-3.07 -3.72,-6.37 -5.14,-9.87 -2.44,-6.03 -4.21,-12.21 -5.33,-18.48 -1.77,-9.88 -1.8,-19.45 -0.34,-28.69 -40.83,-1.29 -81.21,-8.76 -120.67,-24.45 -113.05,-44.95 -168.01,-117.43 -179.99,-196.29 -6.62,-43.61 0.14,-88.88 17.66,-132.24 17.26,-42.73 44.93,-83.59 80.43,-119.09 92.05,-92.05 237.73,-149.42 392.21,-111.32 58.42,14.4 118.97,42.2 179.88,86.61 55.28,40.3 110.75,94.17 165.05,163.96 29.81,38.33 57.5,78.44 83.17,119.79 26.94,43.39 51.65,88.21 74.26,133.82 54.75,110.47 121.34,123.53 180.85,135.2l5.06 1c3.13,0.61 6.1,1.64 8.84,3.03 5.91,2.99 10.42,7.47 13.17,13.14l-0.06 0.03c2.75,5.65 3.64,11.97 2.33,18.63 -0.6,3.04 -1.7,6.21 -3.32,9.41 -7.55,14.91 -28.37,28.91 -55.04,41.65l-0.03 -0.06c-24.14,11.53 -53.29,22.58 -80.97,32.34 -29.17,10.27 -59.65,23.56 -83.56,36.1 11.31,-2.22 24.67,-5.18 40.29,-8.96 80.15,-19.4 155.07,-44.35 221.89,-80.41 28.89,-15.59 56.28,-33.29 81.94,-53.56 -33.17,6.47 -64.91,6.89 -90.05,0.93 -28.83,-6.84 -44.08,-24.95 -56.23,-39.38 -3.91,-4.65 -6.76,-8.02 -7.86,-7.75 -8.52,8.82 -18.94,13.25 -30.01,14.22 -9.17,0.8 -18.66,-0.93 -27.61,-4.53 -8.34,-3.35 -16.28,-8.38 -23.04,-14.44 -12.28,-11.04 -21.21,-26.04 -22.59,-41.77 -0.77,-8.79 1.21,-16.6 5.66,-24l0.85 -1.45c3.95,-6.1 9.54,-11.5 16.63,-16.82 13.94,-10.47 11.71,-13.34 7.46,-18.76 -10.11,-12.92 -23.61,-30.19 -28.05,-61.68zm-695.22 103.7c30.22,-4.26 60.67,-11.39 91.08,-20.43 31.42,-9.34 51.37,-19 61.28,-27.37 -10.2,-2.08 -26.86,-1.63 -49.71,2.47 -15.11,2.71 -31.57,7.54 -47.86,14.15 -19.93,8.08 -39.16,18.69 -54.78,31.18zm82.77 103.62c-9.83,0.42 -20.79,4.1 -31.68,8.32 11.64,1.93 23.03,4.05 34.16,6.33 59.44,12.18 111.5,29.01 152.52,45.92 39.29,16.21 76.75,41.97 108.44,73.34 44.52,-41.09 103.29,-71.4 164.3,-92.5 13.43,-4.64 26.95,-8.84 40.43,-12.61 -29.6,-16.16 -59.95,-38.46 -89.42,-63.99l-3.96 -3.46c-0.99,8.84 -2.62,17.38 -4.9,25.53 -8.53,30.48 -26,55.63 -53,71.57 -22.5,13.29 -51.2,19.83 -86.32,17.24 -24.84,-1.83 -51.04,-8.27 -76.28,-16.69 -24.93,-8.31 -48.47,-18.34 -68.66,-27.66 -5.97,-2.75 -12.13,-5.69 -18.01,-8.49l-1.04 -0.46c-27.5,-13.1 -48.53,-23.1 -66.46,-22.41l-0.12 0.01zm313.15 -156.11c-15.01,-31.85 -36.96,-63.08 -65.31,-90.04 -4.65,-4.43 -9.3,-8.42 -13.8,-11.95 18.7,28.64 46.48,65.02 79.11,101.98zm-50.25 348.25c-30.72,39.57 -46.63,88.31 -37.73,147.43 2.38,15.82 6.4,32.17 12.24,49.05 7.23,20.91 18.69,33.96 30.73,38.63 5.14,1.99 10.41,2.34 15.35,0.98 5.32,-1.47 10.61,-5.01 15.43,-10.7 14.34,-16.93 23.22,-49.82 18.42,-100.84 -4,-42.52 -24.39,-86.32 -54.44,-124.55z"/>
  <path class="fil1" d="M2547.87 750.38l-20.65 -37.17c-30.97,33.72 -85.35,67.45 -139.03,67.45 -96.36,0 -158.99,-71.58 -158.99,-197.54 0,-125.27 61.95,-198.91 154.18,-198.91 77.77,0 120.45,40.61 122.51,128.02l41.3 -7.57c-2.06,-109.44 -60.57,-163.12 -162.44,-163.12 -117.7,0 -201.67,89.48 -201.67,241.59 0,150.73 83.97,240.21 201.67,240.21 66.08,0 127.33,-34.41 163.13,-72.96zm416.47 -148.67l0 214.74 45.43 0 0 -468.03 -45.43 0 0 212.68 -271.87 0 0 -212.68 -45.43 0 0 468.03 45.43 0 0 -214.74 271.87 0zm176.26 214.74l304.22 0 0 -40.61 -260.17 0 0 -183.08 217.5 0 0 -40.61 -217.5 0 0 -163.13 260.17 0 0 -40.61 -304.22 0 0 468.03zm782.63 -48.87c-15.14,8.26 -33.72,15.14 -50.24,15.14 -56.44,0 -107.37,-94.29 -147.29,-142.47 72.96,-2.07 136.97,-56.44 136.97,-143.85 0,-96.36 -64.01,-147.98 -140.41,-147.98l-174.13 0 0 468.03 45.43 0 0 -176.2 73.65 0c44.05,31.66 106.68,183.08 196.16,183.08 24.09,0 48.87,-8.26 65.39,-17.89l-5.51 -37.86zm-329.69 -378.56l118.39 0c56.44,0 103.93,33.73 103.93,107.37 0,68.14 -47.49,105.99 -103.93,105.99l-118.39 0 0 -213.37zm399.27 -40.61l0 468.03 45.43 0 0 -468.03 -45.43 0zm165.25 393.01l-11.01 42.68c25.47,17.21 78.46,39.23 134.9,39.23 94.3,0 156.93,-55.06 156.93,-137.65 0,-64.01 -38.54,-95.67 -107.37,-116.32l-82.59 -24.77c-40.61,-11.7 -64.01,-34.42 -64.01,-73.65 0,-46.12 36.48,-86.73 112.88,-86.73 42.67,0 93.6,16.52 120.45,35.1l13.77 -41.29c-29.6,-18.59 -83.28,-35.79 -135.59,-35.79 -103.93,0 -156.24,62.63 -156.24,130.77 0,59.19 34.42,94.29 89.48,110.12l81.91 23.4c54.37,15.14 80.53,39.23 80.53,81.22 0,59.88 -48.18,93.61 -111.5,93.61 -49.56,0 -97.05,-22.71 -122.51,-39.92zm699.36 -139.72l0 214.74 45.43 0 0 -468.03 -45.43 0 0 212.68 -271.87 0 0 -212.68 -45.43 0 0 468.03 45.43 0 0 -214.74 271.87 0zm176.26 214.74l304.22 0 0 -40.61 -260.17 0 0 -183.08 217.5 0 0 -40.61 -217.5 0 0 -163.13 260.17 0 0 -40.61 -304.22 0 0 468.03zm407.52 0l154.86 0c117.7,0 205.8,-82.59 205.8,-233.33 0,-152.11 -88.1,-234.02 -205.8,-234.7l-154.86 0 0 468.03zm45.43 -40.61l0 -386.82 104.62 0c97.05,0 164.5,67.45 164.5,194.1 0,125.27 -67.45,192.72 -164.5,192.72l-104.62 0z"/>
  <path class="fil1" d="M2208.89 874.86l0 468.03 171.38 0c90.85,0 137.66,-47.49 137.66,-123.89 0,-70.2 -38.54,-108.06 -101.87,-119.07 42.67,-15.83 70.2,-50.25 70.2,-104.62 0,-82.59 -50.93,-120.45 -132.84,-120.45l-144.54 0zm79.36 569.75l-79.36 0 0 18.19 29.3 0 0 91.27 20.6 0 0 -91.27 29.46 0 0 -18.19zm49.87 109.46l74.21 0 0 -18.03 -54.57 0 0 -29.3 44.59 0 0 -17.87 -44.59 0 0 -26.08 54.57 0 0 -18.19 -74.21 0 0 109.46zm148.71 -74.85l50.54 74.85 18.19 0 0 -109.46 -20.77 0 0 75.02 -50.71 -75.02 -17.71 0 0 109.46 20.45 0 0 -74.85zm128.59 74.85l40.73 0c27.53,0 48.13,-19.32 48.13,-54.57 0,-35.42 -20.6,-54.89 -48.13,-54.89l-40.73 0 0 109.46zm20.6 -18.03l0 -73.41 17.55 0c18.19,0 29.62,12.88 29.62,36.86 0,23.66 -11.43,36.54 -29.62,36.54l-17.55 0zm122.31 18.03l74.21 0 0 -18.03 -54.57 0 0 -29.3 44.59 0 0 -17.87 -44.59 0 0 -26.08 54.57 0 0 -18.19 -74.21 0 0 109.46zm218.57 -18.99c-3.06,1.61 -7.08,2.73 -9.98,2.73 -9.98,0 -19.31,-13.68 -28.17,-24.15 15.13,-2.73 26.56,-15.45 26.56,-33.32 0,-21.57 -13.52,-35.74 -33,-35.74l-45.72 0 0 109.46 20.6 0 0 -39.76 6.44 0c11.91,8.21 26.4,41.37 48.29,41.37 5.96,0 13.2,-1.93 17.06,-4.19l-2.09 -16.42zm-69.7 -72.44l19.64 0c10.14,0 17.55,5.96 17.55,17.87 0,10.94 -7.4,17.55 -17.55,17.55l-19.64 0 0 -35.42zm152.73 -18.03l0 109.46 46.04 0c21.89,0 33.64,-11.27 33.64,-30.27 0,-14.97 -8.05,-23.66 -21.41,-26.72 8.53,-4.03 14.01,-11.91 14.01,-23.5 0,-19.8 -12.07,-28.98 -32.52,-28.98l-39.76 0zm20.6 44.11l0 -26.24 16.58 0c9.82,0 14.33,4.02 14.33,12.88 0,8.53 -4.83,13.36 -14.81,13.36l-16.1 0zm0 47.49l0 -28.33 21.09 0c11.27,0 16.58,5.15 16.58,14.65 0,8.53 -4.34,13.68 -14.97,13.68l-22.7 0zm112.01 17.87l74.21 0 0 -18.03 -54.57 0 0 -29.3 44.59 0 0 -17.87 -44.59 0 0 -26.08 54.57 0 0 -18.19 -74.21 0 0 109.46zm198.29 -81.45l8.53 -16.42c-9.66,-8.85 -21.09,-13.2 -36.22,-13.2 -27.52,0 -49.58,20.93 -49.58,56.5 0,35.25 22.06,56.18 49.58,56.18 14.33,0 30.91,-5.8 39.76,-13.04l0 -52.16 -43.79 0 0 17.87 24.47 0 0 22.54c-4.83,3.7 -11.59,5.63 -18.99,5.63 -17.23,0 -29.78,-12.24 -29.78,-37.03 0,-23.83 11.91,-37.35 30.91,-37.35 9.17,0 17.38,3.71 25.11,10.47zm67.57 -28.01l0 109.46 20.6 0 0 -109.46 -20.6 0zm100.74 34.61l50.54 74.85 18.19 0 0 -109.46 -20.77 0 0 75.02 -50.71 -75.02 -17.71 0 0 109.46 20.45 0 0 -74.85zm149.03 0l50.54 74.85 18.19 0 0 -109.46 -20.77 0 0 75.02 -50.71 -75.02 -17.71 0 0 109.46 20.45 0 0 -74.85zm128.59 -34.61l0 109.46 20.6 0 0 -109.46 -20.6 0zm100.74 34.61l50.54 74.85 18.19 0 0 -109.46 -20.77 0 0 75.02 -50.71 -75.02 -17.71 0 0 109.46 20.45 0 0 -74.85zm199.74 -6.6l8.53 -16.42c-9.66,-8.85 -21.09,-13.2 -36.22,-13.2 -27.52,0 -49.58,20.93 -49.58,56.5 0,35.25 22.06,56.18 49.58,56.18 14.33,0 30.91,-5.8 39.76,-13.04l0 -52.16 -43.79 0 0 17.87 24.47 0 0 22.54c-4.83,3.7 -11.59,5.63 -18.99,5.63 -17.23,0 -29.78,-12.24 -29.78,-37.03 0,-23.83 11.91,-37.35 30.91,-37.35 9.17,0 17.38,3.71 25.11,10.47zm67.57 55.21l-4.67 19.16c6.28,3.86 19.48,8.69 33,8.69 23.5,0 37.99,-14.81 37.99,-34.29 0,-14.65 -8.05,-23.34 -24.95,-28.98l-16.58 -5.48c-6.76,-2.09 -10.63,-5.79 -10.63,-12.4 0,-7.56 6.12,-12.72 18.51,-12.72 8.86,0 19.32,2.9 26.4,7.41l5.8 -18.19c-7.41,-4.35 -20.29,-7.89 -32.84,-7.89 -24.79,0 -38.15,14.97 -38.15,32.68 0,14.65 7.41,23.66 21.41,28.17l16.42 5.15c9.17,2.9 13.36,6.6 13.36,13.52 0,9.82 -7.89,14.17 -17.71,14.17 -10.46,0 -20.44,-4.19 -27.37,-9.01zm156.6 28.01l-5.96 21.25 11.27 4.67c4.67,-8.21 11.27,-26.24 11.27,-37.83 0,-8.05 -4.67,-13.36 -12.4,-13.36 -7.73,0 -12.07,4.83 -12.07,13.36 0,5.96 2.74,10.63 7.89,11.91zm105.57 -1.77l74.21 0 0 -18.03 -54.57 0 0 -29.3 44.59 0 0 -17.87 -44.59 0 0 -26.08 54.57 0 0 -18.19 -74.21 0 0 109.46zm211.65 -106.57l0 -2.9 -22.7 0 -23.99 41.21 -23.98 -41.21 -22.54 0 0 2.9 32.2 52 -32.2 51.68 0 2.9 22.7 0 23.82 -41.05 23.67 41.05 23.02 0 0 -2.9 -32.36 -51.68 32.36 -52zm95.11 -2.9l-45.07 0 0 109.46 20.6 0 0 -30.75 24.47 0c18.19,0 34.13,-14.65 34.13,-39.12 0,-27.21 -15.93,-39.6 -34.13,-39.6zm-4.51 60.69l-19.96 0 0 -42.66 19.96 0c9.82,0 17.71,7.4 17.71,21.41 0,13.2 -7.89,21.25 -17.71,21.25zm89.79 48.77l74.21 0 0 -18.03 -54.57 0 0 -29.3 44.59 0 0 -17.87 -44.59 0 0 -26.08 54.57 0 0 -18.19 -74.21 0 0 109.46zm218.57 -18.99c-3.06,1.61 -7.08,2.73 -9.98,2.73 -9.98,0 -19.31,-13.68 -28.17,-24.15 15.13,-2.73 26.56,-15.45 26.56,-33.32 0,-21.57 -13.52,-35.74 -33,-35.74l-45.72 0 0 109.46 20.6 0 0 -39.76 6.44 0c11.91,8.21 26.4,41.37 48.29,41.37 5.96,0 13.2,-1.93 17.06,-4.19l-2.09 -16.42zm-69.7 -72.44l19.64 0c10.14,0 17.55,5.96 17.55,17.87 0,10.94 -7.4,17.55 -17.55,17.55l-19.64 0 0 -35.42zm184.45 -18.03l-79.36 0 0 18.19 29.3 0 0 91.27 20.6 0 0 -91.27 29.46 0 0 -18.19zm164.81 94.98l-8.21 -16.91c-6.76,6.6 -17.38,13.85 -28.17,13.85 -17.71,0 -28.65,-12.72 -28.65,-37.03 0,-23.83 10.3,-37.35 26.08,-37.35 13.04,0 19.96,7.09 20.28,22.7l18.51 -3.7c-0.48,-25.6 -14.01,-38.15 -37.99,-38.15 -27.53,0 -47.97,20.93 -47.97,56.5 0,35.25 20.45,56.18 47.97,56.18 15.45,0 29.78,-7.73 38.15,-16.1zm77.24 -94.98l-36.86 109.46 20.45 0 7.08 -22.7 41.37 0 6.92 22.7 20.45 0 -35.74 -109.46 -23.66 0zm-4.19 71.47l15.94 -51.03 15.29 51.03 -31.23 0zm201.83 19c-3.06,1.61 -7.08,2.73 -9.98,2.73 -9.98,0 -19.31,-13.68 -28.17,-24.15 15.13,-2.73 26.56,-15.45 26.56,-33.32 0,-21.57 -13.52,-35.74 -33,-35.74l-45.72 0 0 109.46 20.6 0 0 -39.76 6.44 0c11.91,8.21 26.4,41.37 48.29,41.37 5.96,0 13.2,-1.93 17.06,-4.19l-2.09 -16.42zm-69.7 -72.44l19.64 0c10.14,0 17.55,5.96 17.55,17.87 0,10.94 -7.4,17.55 -17.55,17.55l-19.64 0 0 -35.42zm118.12 91.44l74.21 0 0 -18.03 -54.57 0 0 -29.3 44.59 0 0 -17.87 -44.59 0 0 -26.08 54.57 0 0 -18.19 -74.21 0 0 109.46zm-3426.13 -472.73l0 -165.88 94.3 0c57.81,0 91.54,25.47 91.54,83.28 0,54.37 -37.17,82.59 -95.67,82.59l-90.17 0zm0 220.94l0 -177.58 108.75 0c67.45,0 108.06,29.6 108.06,92.23 0,53 -31.66,85.35 -95.67,85.35l-121.14 0zm333.72 40.61l304.22 0 0 -40.61 -260.17 0 0 -183.08 217.5 0 0 -40.61 -217.5 0 0 -163.13 260.17 0 0 -40.61 -304.22 0 0 468.03zm686.12 -376.49l21.34 -35.79c-40.61,-39.92 -86.03,-62.63 -150.05,-62.63 -117.7,0 -211.99,89.48 -211.99,241.59 0,150.73 94.29,240.21 211.99,240.21 60.57,0 128.02,-25.46 165.19,-57.13l0 -196.85 -182.4 0 0 40.61 139.72 0 0 130.08c-28.22,24.09 -74.34,40.61 -120.45,40.61 -94.29,0 -167.94,-70.89 -167.94,-197.54 0,-125.27 72.96,-198.91 170,-198.91 50.94,0 88.79,20.65 124.58,55.75zm116.91 -91.54l0 468.03 45.43 0 0 -468.03 -45.43 0zm191.93 75.71l274.63 392.32 41.29 0 0 -468.03 -45.43 0 0 393.7 -276 -393.7 -39.92 0 0 468.03 45.43 0 0 -392.32zm462.43 0l274.63 392.32 41.29 0 0 -468.03 -45.43 0 0 393.7 -276 -393.7 -39.92 0 0 468.03 45.43 0 0 -392.32zm417 -75.71l0 468.03 45.43 0 0 -468.03 -45.43 0zm191.93 75.71l274.63 392.32 41.29 0 0 -468.03 -45.43 0 0 393.7 -276 -393.7 -39.92 0 0 468.03 45.43 0 0 -392.32zm730.86 15.83l21.34 -35.79c-40.61,-39.92 -86.03,-62.63 -150.05,-62.63 -117.7,0 -211.99,89.48 -211.99,241.59 0,150.73 94.29,240.21 211.99,240.21 60.57,0 128.02,-25.46 165.19,-57.13l0 -196.85 -182.4 0 0 40.61 139.72 0 0 130.08c-28.22,24.09 -74.34,40.61 -120.45,40.61 -94.29,0 -167.94,-70.89 -167.94,-197.54 0,-125.27 72.96,-198.91 170,-198.91 50.94,0 88.79,20.65 124.58,55.75zm105.9 301.47l-11.01 42.68c25.47,17.21 78.46,39.23 134.9,39.23 94.3,0 156.93,-55.06 156.93,-137.65 0,-64.01 -38.54,-95.67 -107.37,-116.32l-82.59 -24.77c-40.61,-11.7 -64.01,-34.42 -64.01,-73.65 0,-46.12 36.48,-86.73 112.88,-86.73 42.67,0 93.6,16.52 120.45,35.1l13.77 -41.29c-29.6,-18.59 -83.28,-35.79 -135.59,-35.79 -103.93,0 -156.24,62.63 -156.24,130.77 0,59.19 34.42,94.29 89.48,110.12l81.91 23.4c54.37,15.14 80.53,39.23 80.53,81.22 0,59.88 -48.18,93.61 -111.5,93.61 -49.56,0 -97.05,-22.71 -122.51,-39.92z"/>
 </g>
</svg>
