<?xml version="1.0" encoding="UTF-8"?>
<!DOCTYPE svg PUBLIC "-//W3C//DTD SVG 1.1//EN" "http://www.w3.org/Graphics/SVG/1.1/DTD/svg11.dtd">
<!-- Creator: CorelDRAW 2020 (64-Bit) -->
<svg xmlns="http://www.w3.org/2000/svg" xml:space="preserve" width="6.31986in" height="1.86436in" version="1.1" style="shape-rendering:geometricPrecision; text-rendering:geometricPrecision; image-rendering:optimizeQuality; fill-rule:evenodd; clip-rule:evenodd"
viewBox="0 0 5878.38 1734.12"
 xmlns:xlink="http://www.w3.org/1999/xlink"
 xmlns:xodm="http://www.corel.com/coreldraw/odm/2003">
 <defs>
  <style type="text/css">
   <![CDATA[
    .fil0 {fill:none}
    .fil1 {fill:#FFCCCC;fill-rule:nonzero}
   ]]>
  </style>
 </defs>
 <g id="Layer_x0020_1">
  <metadata id="CorelCorpID_0Corel-Layer"/>
  <rect class="fil0" y="-0" width="5878.38" height="1734.12"/>
  <path class="fil1" d="M1427.82 679.56c-1.4,-10.15 5.69,-19.53 15.84,-20.93 10.15,-1.4 19.53,5.69 20.93,15.84 2.81,19.94 12.06,31.76 18.97,40.6 19.26,24.62 29.4,37.59 -14.03,70.21 -3.25,2.44 -5.59,4.55 -6.8,6.38 -0.18,0.3 -0.27,0.56 -0.26,0.75 0.44,5.02 4.08,10.52 9.16,15.09 3.27,2.93 6.98,5.31 10.74,6.83 3.18,1.28 6.33,1.92 9.1,1.67 1.94,-0.17 3.75,-0.96 5.16,-2.52 0.54,-0.6 1.11,-1.16 1.71,-1.67 29.06,-26.01 42.08,-10.57 60.49,11.3 7.91,9.39 17.86,21.19 33.41,24.88 22.05,5.23 51.9,3.67 83.18,-4.22 19.38,-4.89 39.11,-12.18 57.71,-21.77 7.1,-8.17 13.99,-16.67 20.66,-25.52 11.06,-14.66 23.65,-22.32 32.43,-24.22 8.61,-1.86 16.26,0.19 21.84,5.63 6.18,6.02 8.37,14.25 5.22,23.89 -2.67,8.17 -11.53,19.94 -29.42,32.7 -8.7,6.2 -17.83,11.89 -27.23,17.04 -42.89,48.07 -92.64,85.4 -147.71,115.13 -66.18,35.72 -139.96,60.33 -218.7,79.39 -50.66,12.26 -80.4,16.01 -94.9,14.22 -21.75,-2.69 -28.63,-13.52 -23.77,-30.25 2.19,-7.56 9,-15.33 19.15,-22.88 23.54,-17.49 73.5,-41.68 119.36,-57.82 25.58,-9.01 52.14,-19.05 72.97,-29 10.67,-5.1 19.71,-9.94 25.99,-14.23 -62.06,-12.46 -130.07,-31.26 -186.89,-145.88 -20.76,-41.87 -43.54,-83.17 -68.49,-123.36 -23.51,-37.86 -48.96,-74.72 -76.47,-110.09 -49.33,-63.41 -99.21,-111.98 -148.53,-147.93 -53.41,-38.94 -106.3,-63.26 -157.17,-75.8 -132.11,-32.58 -256.83,16.64 -335.75,95.54 -30.18,30.18 -53.55,64.54 -67.93,100.12 -14.13,34.97 -19.62,71.19 -14.38,105.74 9.43,62.1 54.29,119.8 147.11,156.71 37.44,14.88 76.15,20.95 115.44,20.67 4.13,-6.19 8.95,-12.12 14.35,-17.79 20.16,-21.14 48.58,-38.43 77.9,-50.31 17.48,-7.09 35.6,-12.35 52.67,-15.41 35.8,-6.43 62.14,-4.16 76.59,3.09 10.23,5.13 16.4,12.74 18.25,22.24 1.77,9.07 -0.79,18.42 -7.92,27.44 -11.16,14.12 -37.63,30.01 -80.85,42.86 -42.34,12.59 -85.1,21.48 -127.69,24.14 -2.16,6.91 -2.77,14.02 -1.48,21.22 0.56,3.12 1.55,6.48 3.01,10.07 1.74,4.3 5.19,7.68 9.7,9.78l0.68 0.34c5.22,2.22 11.74,2.89 18.92,1.66 7.93,-1.36 17.32,-5.12 27,-8.99 15.64,-6.26 31.94,-12.78 49.94,-13.56l0.48 -0.01c26.11,-1 49.49,10.13 80.07,24.69l0.95 0.49c5.15,2.45 10.52,5.01 16.63,7.83 18.4,8.5 39.52,17.53 61.09,24.71l0.79 0.29c20.8,6.88 42.22,12.13 62.26,13.6 25.28,1.86 45.21,-2.41 60.13,-11.22 16.75,-9.89 27.73,-25.99 33.26,-45.73 4.05,-14.48 5.27,-30.87 3.79,-48.31 -69.54,-68.79 -129.24,-149.18 -148.2,-188.8 -3.78,-7.9 -4.65,-14.96 -3.12,-21.03 2.5,-9.89 9.16,-15.56 19.13,-17.28 4.99,-0.86 10.87,-0.31 17.27,1.54 14.66,4.24 36.62,17.22 57.04,36.65 47.54,45.23 78.38,102.14 90.13,155.42 1.19,5.41 2.19,10.78 2.99,16.11 9.65,9.25 19.46,18.24 29.37,26.82 42.23,36.58 85.38,65.42 121.78,74.32 7.9,-1.46 15.71,-2.78 23.39,-3.93 9.4,-1.41 18.47,-0.85 24.37,0.6 0.78,0.15 1.55,0.36 2.32,0.62 6.24,2.13 10.82,6.12 13.19,11.61 4.25,9.84 1.9,18.42 -8.3,24.71 -4.04,2.49 -11.51,4.75 -23.05,5.85 -10.12,0.96 -20.68,0.32 -31.58,-1.71 -28.96,5.62 -58.88,13.37 -88,23.44 -53.36,18.45 -104.45,44.69 -142.49,79.94l1.66 2.05c33.69,42.04 56.71,91.29 61.28,139.98 5.58,59.35 -6.7,99.92 -25.99,122.68 -9.56,11.29 -20.95,18.54 -33.06,21.9 -12.47,3.46 -25.42,2.7 -37.77,-2.09 -21.01,-8.15 -40.06,-28.22 -50.71,-59.06 -6.43,-18.6 -10.81,-36.24 -13.32,-52.93 -10.53,-70.01 9.57,-127.18 47.42,-173.09 -26.73,-26.63 -58.21,-48.42 -91.11,-61.99 -36.93,-15.23 -83.87,-30.39 -137.56,-41.4 -36.85,-7.55 -76.83,-13.15 -118.86,-15.47 5.39,3.14 11.89,6.49 19.15,9.96l0.03 -0.06c21.3,10.17 47.71,20.17 72.97,29.07 45.86,16.15 95.82,40.34 119.36,57.82 10.16,7.54 16.97,15.31 19.15,22.87 4.84,16.71 -2.04,27.56 -23.77,30.25 -14.5,1.79 -44.25,-1.96 -94.9,-14.22 -73.93,-17.89 -134.85,-40.67 -189.26,-72.87 -54.6,-32.31 -102.4,-73.93 -149.91,-129.37 -15.82,-18.46 -42.57,-46.4 -63.69,-62.98 3.08,8.4 7.63,19.09 13.89,32.43 81.21,173.05 204.82,253.53 343.24,343.64 39.81,25.92 80.83,52.62 121.13,81.49 130.04,93.12 180.32,157.57 201.37,192 21.04,-34.43 71.32,-98.88 201.37,-192 48.17,-34.5 100.51,-66.28 152.66,-97.96 102.84,-62.46 205.04,-124.53 278.32,-211.67 72.7,-86.46 107.39,-190.57 107.39,-289.77 0,-54.55 -10.48,-107.5 -30.87,-155.08 -20.29,-47.35 -50.38,-89.43 -89.69,-122.48 -56.24,-47.3 -131.8,-76.39 -225.12,-76.39 -50.67,0 -98.76,10.84 -142.04,30.31 -45.11,20.29 -85.06,49.88 -117.37,86.3 -14.84,16.72 -21.27,32.3 -21.6,44.63 -0.14,5.34 0.93,9.9 2.96,13.37 1.67,2.87 4.02,5 6.83,6.14 4.65,1.9 11.07,1.75 18.75,-1.09 16.54,-6.11 28.72,-22.53 40.53,-38.48 10.58,-14.28 20.96,-28.27 35.34,-38.3l1.37 -0.86c18.96,-12.82 41.5,-19.86 61.55,-19.85 13.11,0.01 25.44,2.96 35.62,9.16 11.12,6.76 19.43,17.04 23.33,31.14 3.67,13.3 3.12,29.82 -3.33,49.69 1.34,0.76 3.37,1.72 6.26,2.93 13.48,5.67 37.45,-1.9 65.99,-10.93 9.8,-3.09 20.1,-6.35 33.41,-9.98 56.6,-15.42 109.1,-10.86 152.12,6.86 27.05,11.15 50.36,27.47 68.63,47.31 18.45,20.03 31.83,43.74 38.83,69.42 8.88,32.58 7.43,68.11 -7.01,103.13 -8.41,20.41 -22.07,35.27 -37.77,45.36 -18.36,11.8 -39.61,16.99 -58.41,16.89 -10.84,-0.06 -20.88,-1.63 -29.9,-4.4 -15.89,-4.88 -28.91,-13.51 -38.05,-24.39 -9.68,-11.52 -15.01,-25.55 -14.93,-40.48 0.04,-6.02 0.94,-12.09 2.78,-18.08 5.67,-18.47 16.28,-30.53 28.88,-37.44 10.08,-5.53 21.2,-7.58 31.95,-6.89 10.47,0.67 20.67,3.95 29.22,9.12 12.31,7.44 21.65,18.99 24.54,32.85 2.08,10.03 -4.36,19.86 -14.39,21.95 -10.03,2.08 -19.86,-4.36 -21.95,-14.39 -0.66,-3.16 -3.49,-6.23 -7.39,-8.58 -3.65,-2.21 -7.98,-3.61 -12.37,-3.89 -4.1,-0.26 -8.21,0.45 -11.75,2.39 -4.67,2.56 -8.78,7.58 -11.29,15.79 -0.78,2.55 -1.17,5.01 -1.18,7.32 -0.03,5.87 2.24,11.6 6.35,16.5 4.65,5.54 11.65,10.05 20.46,12.76 5.75,1.77 12.18,2.76 19.15,2.8 12.27,0.07 26.17,-3.33 38.21,-11.07 9.78,-6.29 18.3,-15.54 23.52,-28.22 11.16,-27.09 12.33,-54.4 5.55,-79.29 -5.39,-19.79 -15.87,-38.25 -30.4,-54.02 -14.71,-15.97 -33.53,-29.14 -55.41,-38.15 -35.94,-14.81 -80.16,-18.52 -128.28,-5.41 -9.47,2.58 -21.01,6.23 -31.96,9.69 -35.52,11.23 -65.33,20.65 -91.58,9.62 -13.03,-5.47 -20.78,-11.77 -25.16,-18.55 -6.2,-9.61 -5.93,-18.67 -2.85,-27.43 4.82,-13.71 5.67,-23.85 3.72,-30.91 -1.18,-4.28 -3.64,-7.36 -6.9,-9.34 -4.2,-2.56 -9.88,-3.78 -16.3,-3.78 -12.94,-0.01 -27.79,4.73 -40.6,13.34l-1.1 0.83c-9.57,6.67 -18.08,18.15 -26.76,29.87 -15.09,20.37 -30.64,41.34 -57.54,51.28 -16.77,6.2 -32.48,5.83 -45.49,0.51 -10.68,-4.37 -19.26,-11.87 -25,-21.69 -5.38,-9.21 -8.24,-20.47 -7.9,-32.99 0.55,-20.36 9.76,-44.49 30.9,-68.33 35.86,-40.42 80.07,-73.21 129.87,-95.6 48.06,-21.62 101.32,-33.65 157.31,-33.65 102.56,0 186.19,32.46 248.95,85.25 43.96,36.96 77.51,83.78 100.01,136.3 22.41,52.29 33.92,110.2 33.92,169.61 0,107.35 -37.55,220.02 -116.25,313.61 -77.21,91.81 -182.01,155.47 -287.48,219.52 -50.68,30.78 -101.52,61.66 -150.19,96.51 -159.34,114.1 -191.74,179.89 -201.72,200.16 -5.74,11.66 -8.65,17.5 -21.31,17.5 -12.73,0 -15.57,-5.84 -21.31,-17.5 -9.98,-20.27 -42.38,-86.05 -201.72,-200.16 -41.5,-29.72 -81.17,-55.54 -119.68,-80.61 -143.1,-93.15 -270.87,-176.34 -356.62,-359.05 -16.07,-34.25 -22.6,-56.04 -22.58,-68.73 0.03,-19.66 9.49,-28.01 25.54,-27.89l0.07 0c8.26,0.07 17.77,4.09 27.78,10.71 24.97,16.52 61.01,53.58 80.76,76.63 44.76,52.25 89.61,91.34 140.61,121.52 51.19,30.29 108.85,51.81 179.09,68.81 14.77,3.57 27.4,6.36 38.1,8.47 -22.61,-11.85 -51.43,-24.42 -79.01,-34.13 -26.51,-9.33 -54.23,-19.83 -76.61,-30.52l0.03 -0.06c-25.28,-12.08 -44.98,-25.3 -52.08,-39.33 -1.53,-3.02 -2.57,-6.01 -3.14,-8.9 -1.05,-5.34 -0.6,-10.46 1.15,-15.16 0.27,-0.84 0.6,-1.67 1,-2.49 2.6,-5.35 6.87,-9.59 12.46,-12.43 2.59,-1.31 5.4,-2.29 8.36,-2.87l0.01 0.05c1.26,-0.25 2.57,-0.36 3.91,-0.34l11.6 0.34c-1.89,-2.91 -3.52,-6.02 -4.86,-9.33 -2.31,-5.7 -3.98,-11.54 -5.04,-17.48 -1.68,-9.34 -1.7,-18.4 -0.31,-27.13 -38.61,-1.22 -76.81,-8.28 -114.12,-23.12 -106.91,-42.5 -158.89,-111.06 -170.21,-185.63 -6.26,-41.24 0.13,-84.05 16.7,-125.06 16.33,-40.41 42.49,-79.05 76.07,-112.62 87.06,-87.05 224.82,-141.31 370.92,-105.28 55.25,13.62 112.51,39.91 170.11,81.9 52.28,38.11 104.74,89.05 156.08,155.06 28.19,36.25 54.38,74.18 78.66,113.29 25.48,41.04 48.84,83.42 70.23,126.56 51.78,104.47 114.75,116.82 171.03,127.85l4.79 0.94c2.96,0.58 5.77,1.55 8.36,2.87 5.59,2.83 9.85,7.07 12.46,12.43l-0.06 0.03c2.6,5.34 3.44,11.33 2.21,17.62 -0.57,2.88 -1.6,5.88 -3.14,8.9 -7.1,14.03 -26.79,27.26 -52.05,39.32 -22.84,10.91 -50.42,21.37 -76.61,30.59 -27.58,9.71 -56.41,22.28 -79.02,34.14 10.7,-2.1 23.33,-4.9 38.11,-8.47 75.8,-18.34 146.65,-41.94 209.84,-76.05 27.32,-14.75 53.22,-31.49 77.49,-50.66 -31.38,6.12 -61.39,6.51 -85.16,0.88 -27.26,-6.47 -41.69,-23.6 -53.18,-37.24 -3.7,-4.4 -6.39,-7.59 -7.43,-7.33 -8.06,8.35 -17.91,12.53 -28.38,13.45 -8.67,0.76 -17.64,-0.88 -26.11,-4.29 -7.88,-3.17 -15.4,-7.92 -21.79,-13.66 -11.61,-10.44 -20.06,-24.63 -21.37,-39.5 -0.78,-8.88 1.35,-16.66 6.09,-23.99l0.07 -0.07c3.74,-5.77 9.02,-10.87 15.72,-15.91 13.18,-9.9 11.07,-12.61 7.05,-17.75 -9.56,-12.22 -22.33,-28.55 -26.52,-58.33zm-657.47 98.07c28.58,-4.03 57.38,-10.77 86.13,-19.32 29.71,-8.83 48.58,-17.97 57.95,-25.88 -9.64,-1.96 -25.4,-1.54 -47.01,2.34 -14.29,2.56 -29.85,7.13 -45.26,13.38 -18.84,7.64 -37.03,17.67 -51.81,29.48zm78.27 97.99c-9.3,0.4 -19.66,3.88 -29.96,7.87 11,1.82 21.78,3.83 32.3,5.98 56.21,11.52 105.45,27.43 144.24,43.43 37.16,15.33 72.58,39.69 102.55,69.36 42.1,-38.86 97.68,-67.53 155.38,-87.48 12.7,-4.39 25.49,-8.36 38.23,-11.92 -27.99,-15.28 -56.7,-36.37 -84.56,-60.51l-3.75 -3.27c-0.93,8.36 -2.48,16.44 -4.63,24.14 -8.07,28.82 -24.59,52.61 -50.12,67.68 -21.28,12.56 -48.42,18.75 -81.64,16.31 -23.21,-1.71 -47.69,-7.68 -71.3,-15.5l-0.91 -0.28c-23.38,-7.8 -45.67,-17.3 -64.86,-26.16 -5.64,-2.6 -11.47,-5.38 -17.03,-8.03l-0.99 -0.43c-26.01,-12.39 -45.9,-21.85 -62.85,-21.2l-0.11 0.01zm296.14 -147.63c-14.19,-30.12 -34.96,-59.65 -61.76,-85.15 -4.4,-4.19 -8.79,-7.96 -13.05,-11.3 17.68,27.08 43.95,61.49 74.81,96.45zm-47.52 329.34c-29.05,37.42 -44.09,83.51 -35.68,139.43 2.25,14.96 6.06,30.43 11.58,46.39 6.83,19.77 17.68,32.11 29.07,36.53 4.86,1.89 9.85,2.22 14.51,0.92 5.03,-1.39 10.04,-4.74 14.6,-10.12 13.56,-16.01 21.96,-47.12 17.42,-95.37 -3.78,-40.21 -23.07,-81.63 -51.48,-117.78z"/>
  <path class="fil1" d="M2409.52 709.63l-19.53 -35.15c-29.29,31.89 -80.71,63.79 -131.48,63.79 -91.13,0 -150.36,-67.7 -150.36,-186.81 0,-118.47 58.58,-188.11 145.81,-188.11 73.55,0 113.91,38.4 115.86,121.07l39.06 -7.16c-1.95,-103.5 -57.28,-154.26 -153.62,-154.26 -111.31,0 -190.72,84.62 -190.72,228.47 0,142.55 79.41,227.17 190.72,227.17 62.49,0 120.42,-32.54 154.27,-69zm-320.57 117.73l0 442.62 162.08 0c85.92,0 130.18,-44.91 130.18,-117.17 0,-66.39 -36.45,-102.19 -96.34,-112.61 40.36,-14.97 66.39,-47.52 66.39,-98.94 0,-78.11 -48.17,-113.91 -125.62,-113.91l-136.69 0zm75.05 538.81l-75.05 0 0 17.2 27.71 0 0 86.32 19.49 0 0 -86.32 27.86 0 0 -17.2zm47.16 103.52l70.18 0 0 -17.05 -51.61 0 0 -27.71 42.17 0 0 -16.9 -42.17 0 0 -24.66 51.61 0 0 -17.2 -70.18 0 0 103.52zm140.63 -70.79l47.8 70.79 17.2 0 0 -103.52 -19.64 0 0 70.94 -47.95 -70.94 -16.75 0 0 103.52 19.34 0 0 -70.79zm121.6 70.79l38.52 0c26.03,0 45.52,-18.27 45.52,-51.61 0,-33.49 -19.49,-51.91 -45.52,-51.91l-38.52 0 0 103.52zm19.49 -17.05l0 -69.42 16.6 0c17.2,0 28.01,12.18 28.01,34.86 0,22.38 -10.81,34.56 -28.01,34.56l-16.6 0zm115.67 17.05l70.18 0 0 -17.05 -51.61 0 0 -27.71 42.17 0 0 -16.9 -42.17 0 0 -24.66 51.61 0 0 -17.2 -70.18 0 0 103.52zm206.7 -17.96c-2.89,1.52 -6.7,2.59 -9.44,2.59 -9.44,0 -18.27,-12.94 -26.64,-22.84 14.31,-2.59 25.12,-14.61 25.12,-31.51 0,-20.4 -12.79,-33.8 -31.21,-33.8l-43.24 0 0 103.52 19.49 0 0 -37.6 6.09 0c11.26,7.76 24.97,39.12 45.67,39.12 5.63,0 12.48,-1.83 16.13,-3.96l-1.98 -15.53zm-65.92 -68.51l18.57 0c9.59,0 16.59,5.63 16.59,16.9 0,10.35 -7,16.59 -16.59,16.59l-18.57 0 0 -33.49zm144.44 -17.05l0 103.52 43.54 0c20.7,0 31.82,-10.66 31.82,-28.62 0,-14.16 -7.61,-22.38 -20.25,-25.27 8.07,-3.81 13.25,-11.27 13.25,-22.23 0,-18.72 -11.42,-27.4 -30.75,-27.4l-37.6 0zm19.49 41.71l0 -24.81 15.68 0c9.29,0 13.55,3.8 13.55,12.18 0,8.07 -4.57,12.64 -14.01,12.64l-15.22 0zm0 44.91l0 -26.79 19.94 0c10.66,0 15.68,4.87 15.68,13.85 0,8.07 -4.11,12.94 -14.16,12.94l-21.47 0zm105.93 16.9l70.18 0 0 -17.05 -51.61 0 0 -27.71 42.17 0 0 -16.9 -42.17 0 0 -24.66 51.61 0 0 -17.2 -70.18 0 0 103.52zm187.52 -77.03l8.07 -15.53c-9.13,-8.37 -19.94,-12.48 -34.25,-12.48 -26.03,0 -46.89,19.79 -46.89,53.44 0,33.34 20.86,53.13 46.89,53.13 13.55,0 29.23,-5.48 37.6,-12.33l0 -49.32 -41.41 0 0 16.9 23.14 0 0 21.31c-4.57,3.5 -10.96,5.33 -17.96,5.33 -16.29,0 -28.16,-11.57 -28.16,-35.02 0,-22.53 11.26,-35.32 29.23,-35.32 8.68,0 16.44,3.5 23.75,9.9zm63.91 -26.49l0 103.52 19.49 0 0 -103.52 -19.49 0zm95.27 32.73l47.8 70.79 17.2 0 0 -103.52 -19.64 0 0 70.94 -47.95 -70.94 -16.75 0 0 103.52 19.34 0 0 -70.79zm140.94 0l47.8 70.79 17.2 0 0 -103.52 -19.64 0 0 70.94 -47.95 -70.94 -16.75 0 0 103.52 19.34 0 0 -70.79zm121.6 -32.73l0 103.52 19.49 0 0 -103.52 -19.49 0zm95.27 32.73l47.8 70.79 17.2 0 0 -103.52 -19.64 0 0 70.94 -47.95 -70.94 -16.75 0 0 103.52 19.34 0 0 -70.79zm188.89 -6.24l8.07 -15.53c-9.13,-8.37 -19.94,-12.48 -34.25,-12.48 -26.03,0 -46.89,19.79 -46.89,53.44 0,33.34 20.86,53.13 46.89,53.13 13.55,0 29.23,-5.48 37.6,-12.33l0 -49.32 -41.41 0 0 16.9 23.14 0 0 21.31c-4.57,3.5 -10.96,5.33 -17.96,5.33 -16.29,0 -28.16,-11.57 -28.16,-35.02 0,-22.53 11.26,-35.32 29.23,-35.32 8.68,0 16.44,3.5 23.75,9.9zm63.91 52.22l-4.42 18.12c5.94,3.65 18.42,8.22 31.21,8.22 22.22,0 35.93,-14.01 35.93,-32.43 0,-13.85 -7.61,-22.07 -23.6,-27.4l-15.68 -5.18c-6.39,-1.98 -10.05,-5.48 -10.05,-11.72 0,-7.15 5.79,-12.03 17.51,-12.03 8.37,0 18.27,2.74 24.97,7.01l5.48 -17.2c-7.01,-4.11 -19.19,-7.46 -31.06,-7.46 -23.44,0 -36.08,14.16 -36.08,30.9 0,13.85 7.01,22.38 20.25,26.64l15.53 4.87c8.68,2.74 12.63,6.24 12.63,12.79 0,9.29 -7.46,13.4 -16.75,13.4 -9.89,0 -19.33,-3.96 -25.88,-8.53zm148.09 26.49l-5.63 20.1 10.66 4.41c4.42,-7.76 10.66,-24.81 10.66,-35.77 0,-7.61 -4.42,-12.64 -11.72,-12.64 -7.31,0 -11.42,4.57 -11.42,12.64 0,5.63 2.59,10.05 7.46,11.26zm99.84 -1.67l70.18 0 0 -17.05 -51.61 0 0 -27.71 42.17 0 0 -16.9 -42.17 0 0 -24.66 51.61 0 0 -17.2 -70.18 0 0 103.52zm200.16 -100.78l0 -2.74 -21.46 0 -22.69 38.97 -22.68 -38.97 -21.31 0 0 2.74 30.45 49.17 -30.45 48.87 0 2.74 21.47 0 22.53 -38.82 22.38 38.82 21.77 0 0 -2.74 -30.6 -48.87 30.6 -49.17zm89.94 -2.74l-42.63 0 0 103.52 19.49 0 0 -29.08 23.14 0c17.2,0 32.27,-13.85 32.27,-36.99 0,-25.73 -15.07,-37.45 -32.27,-37.45zm-4.26 57.39l-18.88 0 0 -40.34 18.88 0c9.29,0 16.75,7 16.75,20.25 0,12.48 -7.46,20.1 -16.75,20.1zm84.92 46.13l70.18 0 0 -17.05 -51.61 0 0 -27.71 42.17 0 0 -16.9 -42.17 0 0 -24.66 51.61 0 0 -17.2 -70.18 0 0 103.52zm206.7 -17.96c-2.89,1.52 -6.7,2.59 -9.44,2.59 -9.44,0 -18.27,-12.94 -26.64,-22.84 14.31,-2.59 25.12,-14.61 25.12,-31.51 0,-20.4 -12.79,-33.8 -31.21,-33.8l-43.24 0 0 103.52 19.49 0 0 -37.6 6.09 0c11.26,7.76 24.97,39.12 45.67,39.12 5.63,0 12.48,-1.83 16.13,-3.96l-1.98 -15.53zm-65.92 -68.51l18.57 0c9.59,0 16.59,5.63 16.59,16.9 0,10.35 -7,16.59 -16.59,16.59l-18.57 0 0 -33.49zm174.43 -17.05l-75.05 0 0 17.2 27.71 0 0 86.32 19.49 0 0 -86.32 27.86 0 0 -17.2zm155.86 89.82l-7.76 -15.99c-6.39,6.24 -16.44,13.1 -26.64,13.1 -16.75,0 -27.1,-12.03 -27.1,-35.02 0,-22.53 9.74,-35.32 24.66,-35.32 12.33,0 18.88,6.7 19.18,21.47l17.51 -3.5c-0.46,-24.21 -13.25,-36.08 -35.93,-36.08 -26.03,0 -45.37,19.79 -45.37,53.44 0,33.34 19.34,53.13 45.37,53.13 14.61,0 28.16,-7.31 36.08,-15.22zm73.04 -89.82l-34.86 103.52 19.34 0 6.7 -21.47 39.12 0 6.54 21.47 19.34 0 -33.8 -103.52 -22.38 0zm-3.96 67.59l15.07 -48.26 14.46 48.26 -29.53 0zm190.87 17.97c-2.89,1.52 -6.7,2.59 -9.44,2.59 -9.44,0 -18.27,-12.94 -26.64,-22.84 14.31,-2.59 25.12,-14.61 25.12,-31.51 0,-20.4 -12.79,-33.8 -31.21,-33.8l-43.24 0 0 103.52 19.49 0 0 -37.6 6.09 0c11.26,7.76 24.97,39.12 45.67,39.12 5.63,0 12.48,-1.83 16.13,-3.96l-1.98 -15.53zm-65.92 -68.51l18.57 0c9.59,0 16.59,5.63 16.59,16.9 0,10.35 -7,16.59 -16.59,16.59l-18.57 0 0 -33.49zm111.71 86.47l70.18 0 0 -17.05 -51.61 0 0 -27.71 42.17 0 0 -16.9 -42.17 0 0 -24.66 51.61 0 0 -17.2 -70.18 0 0 103.52zm-3240.1 -447.06l0 -156.87 89.18 0c54.67,0 86.57,24.08 86.57,78.76 0,51.42 -35.15,78.11 -90.48,78.11l-85.27 0zm0 208.94l0 -167.94 102.84 0c63.79,0 102.2,27.99 102.2,87.22 0,50.12 -29.94,80.71 -90.48,80.71l-114.56 0zm315.6 38.4l287.7 0 0 -38.4 -246.04 0 0 -173.14 205.69 0 0 -38.4 -205.69 0 0 -154.27 246.04 0 0 -38.4 -287.7 0 0 442.62zm648.86 -356.05l20.18 -33.85c-38.4,-37.75 -81.36,-59.23 -141.9,-59.23 -111.31,0 -200.48,84.62 -200.48,228.47 0,142.55 89.17,227.17 200.48,227.17 57.28,0 121.07,-24.08 156.22,-54.03l0 -186.16 -172.49 0 0 38.41 132.14 0 0 123.02c-26.69,22.78 -70.3,38.4 -113.91,38.4 -89.17,0 -158.82,-67.04 -158.82,-186.81 0,-118.47 69,-188.11 160.77,-188.11 48.17,0 83.97,19.53 117.82,52.73zm110.56 -86.57l0 442.62 42.96 0 0 -442.62 -42.96 0zm181.51 71.6l259.72 371.02 39.05 0 0 -442.62 -42.96 0 0 372.32 -261.02 -372.32 -37.75 0 0 442.62 42.96 0 0 -371.02zm437.32 0l259.72 371.02 39.05 0 0 -442.62 -42.96 0 0 372.32 -261.02 -372.32 -37.75 0 0 442.62 42.96 0 0 -371.02zm394.36 -71.6l0 442.62 42.96 0 0 -442.62 -42.96 0zm181.51 71.6l259.72 371.02 39.05 0 0 -442.62 -42.96 0 0 372.32 -261.02 -372.32 -37.75 0 0 442.62 42.96 0 0 -371.02zm691.17 14.97l20.18 -33.85c-38.4,-37.75 -81.36,-59.23 -141.9,-59.23 -111.31,0 -200.48,84.62 -200.48,228.47 0,142.55 89.17,227.17 200.48,227.17 57.28,0 121.07,-24.08 156.22,-54.03l0 -186.16 -172.49 0 0 38.41 132.14 0 0 123.02c-26.69,22.78 -70.3,38.4 -113.91,38.4 -89.17,0 -158.82,-67.04 -158.82,-186.81 0,-118.47 69,-188.11 160.77,-188.11 48.17,0 83.97,19.53 117.82,52.73zm100.15 285.1l-10.41 40.36c24.08,16.27 74.2,37.1 127.58,37.1 89.18,0 148.41,-52.07 148.41,-130.18 0,-60.54 -36.45,-90.48 -101.54,-110.01l-78.11 -23.43c-38.41,-11.07 -60.54,-32.55 -60.54,-69.65 0,-43.61 34.5,-82.02 106.75,-82.02 40.36,0 88.52,15.62 113.91,33.2l13.02 -39.05c-27.99,-17.58 -78.76,-33.85 -128.23,-33.85 -98.29,0 -147.76,59.23 -147.76,123.67 0,55.98 32.55,89.17 84.62,104.14l77.46 22.13c51.42,14.32 76.15,37.1 76.15,76.81 0,56.63 -45.56,88.52 -105.45,88.52 -46.87,0 -91.78,-21.48 -115.86,-37.76zm-2389.58 -629.99l0 203.08 42.96 0 0 -442.62 -42.96 0 0 201.13 -257.11 0 0 -201.13 -42.96 0 0 442.62 42.96 0 0 -203.08 257.11 0zm166.69 203.08l287.7 0 0 -38.4 -246.04 0 0 -173.14 205.69 0 0 -38.4 -205.69 0 0 -154.27 246.04 0 0 -38.4 -287.7 0 0 442.62zm740.14 -46.21c-14.32,7.81 -31.89,14.32 -47.51,14.32 -53.37,0 -101.54,-89.17 -139.29,-134.74 69,-1.96 129.53,-53.38 129.53,-136.04 0,-91.13 -60.54,-139.95 -132.79,-139.95l-164.68 0 0 442.62 42.96 0 0 -166.63 69.65 0c41.66,29.94 100.89,173.14 185.51,173.14 22.78,0 46.21,-7.81 61.84,-16.92l-5.21 -35.8zm-311.79 -358l111.96 0c53.37,0 98.29,31.9 98.29,101.54 0,64.44 -44.91,100.24 -98.29,100.24l-111.96 0 0 -201.78zm377.59 -38.4l0 442.62 42.96 0 0 -442.62 -42.96 0zm156.28 371.67l-10.41 40.36c24.08,16.27 74.2,37.1 127.58,37.1 89.18,0 148.41,-52.07 148.41,-130.18 0,-60.54 -36.45,-90.48 -101.54,-110.01l-78.11 -23.43c-38.41,-11.07 -60.54,-32.55 -60.54,-69.65 0,-43.61 34.5,-82.02 106.75,-82.02 40.36,0 88.52,15.62 113.91,33.2l13.02 -39.05c-27.99,-17.58 -78.76,-33.85 -128.23,-33.85 -98.29,0 -147.76,59.23 -147.76,123.67 0,55.98 32.55,89.17 84.62,104.14l77.46 22.13c51.42,14.32 76.15,37.1 76.15,76.81 0,56.63 -45.56,88.52 -105.45,88.52 -46.87,0 -91.78,-21.48 -115.86,-37.76zm661.38 -132.13l0 203.08 42.96 0 0 -442.62 -42.96 0 0 201.13 -257.11 0 0 -201.13 -42.96 0 0 442.62 42.96 0 0 -203.08 257.11 0zm166.69 203.08l287.7 0 0 -38.4 -246.04 0 0 -173.14 205.69 0 0 -38.4 -205.69 0 0 -154.27 246.04 0 0 -38.4 -287.7 0 0 442.62zm385.39 0l146.45 0c111.31,0 194.62,-78.11 194.62,-220.66 0,-143.85 -83.32,-221.31 -194.62,-221.96l-146.45 0 0 442.62zm42.96 -38.4l0 -365.81 98.94 0c91.78,0 155.57,63.79 155.57,183.56 0,118.47 -63.79,182.26 -155.57,182.26l-98.94 0z"/>
 </g>
</svg>
