<svg width="58" height="58" viewBox="0 0 58 58" fill="none" xmlns="http://www.w3.org/2000/svg">
<circle cx="29" cy="29" r="29" fill="#E9ACFF"/>
<path d="M41.75 18.7335V37.1414C41.7502 37.3059 41.7121 37.4683 41.6388 37.6157C41.5655 37.763 41.459 37.8913 41.3277 37.9905C41.1963 38.0896 41.0437 38.1569 40.8819 38.187C40.7201 38.2172 40.5535 38.2093 40.3953 38.164L17.0203 31.3507C16.7982 31.2872 16.6028 31.153 16.4638 30.9685C16.3248 30.7839 16.2498 30.5591 16.25 30.3281V25.5468C16.2498 25.3158 16.3248 25.091 16.4638 24.9064C16.6028 24.7219 16.7982 24.5877 17.0203 24.5242L40.3953 17.7109C40.5535 17.6656 40.7201 17.6577 40.8819 17.6879C41.0437 17.718 41.1963 17.7853 41.3277 17.8844C41.459 17.9836 41.5655 18.1119 41.6388 18.2592C41.7121 18.4066 41.7502 18.569 41.75 18.7335Z" stroke="white" stroke-width="2" stroke-linecap="round" stroke-linejoin="round"/>
<path d="M21.5625 32.6786V37.4997C21.5625 37.7815 21.6744 38.0518 21.8737 38.251C22.073 38.4503 22.3432 38.5622 22.625 38.5622H26.875C27.1568 38.5622 27.427 38.4503 27.6263 38.251C27.8256 38.0518 27.9375 37.7815 27.9375 37.4997V21.3364" stroke="white" stroke-width="2" stroke-linecap="round" stroke-linejoin="round"/>
</svg>
