<svg width="615" height="33" viewBox="0 0 615 33" fill="none" xmlns="http://www.w3.org/2000/svg">
<rect x="614" y="32" width="287" height="31" rx="15.5" transform="rotate(180 614 32)" stroke="white" stroke-width="2"/>
<path d="M342.764 23.0005V11.1205H347.444C348.872 11.1205 349.916 11.4085 350.576 11.9845C351.236 12.5605 351.566 13.3585 351.566 14.3785C351.566 15.0025 351.386 15.5605 351.026 16.0525C350.666 16.5325 350.138 16.8385 349.442 16.9705V16.9885C350.21 17.1085 350.804 17.4265 351.224 17.9425C351.656 18.4465 351.872 19.0345 351.872 19.7065C351.872 20.7265 351.5 21.5305 350.756 22.1185C350.012 22.7065 348.932 23.0005 347.516 23.0005H342.764ZM344.654 21.3985H347.606C348.362 21.3985 348.926 21.2425 349.298 20.9305C349.682 20.6185 349.874 20.1805 349.874 19.6165C349.874 19.0525 349.682 18.6145 349.298 18.3025C348.926 17.9905 348.362 17.8345 347.606 17.8345H344.654V21.3985ZM344.654 16.2325H347.3C348.812 16.2325 349.568 15.6505 349.568 14.4865C349.568 13.3225 348.812 12.7405 347.3 12.7405H344.654V16.2325ZM358.102 23.0005V11.1205H366.706V12.7765H360.028V16.1965H365.248V17.8165H360.028V21.3445H366.958V23.0005H358.102ZM374.891 21.3445H381.443V23.0005H372.965V11.1205H374.891V21.3445ZM391.688 10.9405C392.84 10.9405 393.836 11.1865 394.676 11.6785C395.516 12.1705 396.164 12.8725 396.62 13.7845C397.076 14.6965 397.304 15.7885 397.304 17.0605C397.304 18.3325 397.076 19.4245 396.62 20.3365C396.164 21.2485 395.516 21.9505 394.676 22.4425C393.836 22.9345 392.84 23.1805 391.688 23.1805C390.548 23.1805 389.558 22.9345 388.718 22.4425C387.878 21.9505 387.23 21.2485 386.774 20.3365C386.318 19.4245 386.09 18.3325 386.09 17.0605C386.09 15.7885 386.318 14.6965 386.774 13.7845C387.23 12.8725 387.878 12.1705 388.718 11.6785C389.558 11.1865 390.548 10.9405 391.688 10.9405ZM391.688 12.6145C390.944 12.6145 390.302 12.7885 389.762 13.1365C389.234 13.4845 388.826 13.9885 388.538 14.6485C388.25 15.3085 388.106 16.1125 388.106 17.0605C388.106 17.9965 388.25 18.8005 388.538 19.4725C388.826 20.1325 389.234 20.6365 389.762 20.9845C390.302 21.3325 390.944 21.5065 391.688 21.5065C392.444 21.5065 393.086 21.3325 393.614 20.9845C394.154 20.6365 394.568 20.1325 394.856 19.4725C395.144 18.8005 395.288 17.9965 395.288 17.0605C395.288 16.1125 395.144 15.3085 394.856 14.6485C394.568 13.9885 394.154 13.4845 393.614 13.1365C393.086 12.7885 392.444 12.6145 391.688 12.6145ZM405.645 23.0005L402.153 11.1205H404.187L406.851 21.3265L409.443 11.1205H411.423L414.033 21.3445L416.679 11.1205H418.641L415.167 23.0005H412.899L411.009 15.8725L410.415 13.1365H410.397L409.803 15.8725L407.931 23.0005H405.645ZM437.764 11.1205C438.616 11.1205 439.348 11.2705 439.96 11.5705C440.584 11.8705 441.07 12.2965 441.418 12.8485C441.766 13.4005 441.94 14.0665 441.94 14.8465C441.94 15.6145 441.766 16.2805 441.418 16.8445C441.07 17.3965 440.584 17.8225 439.96 18.1225C439.348 18.4225 438.616 18.5725 437.764 18.5725H435.118V23.0005H433.192V11.1205H437.764ZM437.458 16.9165C438.31 16.9165 438.934 16.7425 439.33 16.3945C439.738 16.0345 439.942 15.5185 439.942 14.8465C439.942 14.1625 439.738 13.6465 439.33 13.2985C438.934 12.9385 438.31 12.7585 437.458 12.7585H435.118V16.9165H437.458ZM452.829 10.9405C453.981 10.9405 454.977 11.1865 455.817 11.6785C456.657 12.1705 457.305 12.8725 457.761 13.7845C458.217 14.6965 458.445 15.7885 458.445 17.0605C458.445 18.3325 458.217 19.4245 457.761 20.3365C457.305 21.2485 456.657 21.9505 455.817 22.4425C454.977 22.9345 453.981 23.1805 452.829 23.1805C451.689 23.1805 450.699 22.9345 449.859 22.4425C449.019 21.9505 448.371 21.2485 447.915 20.3365C447.459 19.4245 447.231 18.3325 447.231 17.0605C447.231 15.7885 447.459 14.6965 447.915 13.7845C448.371 12.8725 449.019 12.1705 449.859 11.6785C450.699 11.1865 451.689 10.9405 452.829 10.9405ZM452.829 12.6145C452.085 12.6145 451.443 12.7885 450.903 13.1365C450.375 13.4845 449.967 13.9885 449.679 14.6485C449.391 15.3085 449.247 16.1125 449.247 17.0605C449.247 17.9965 449.391 18.8005 449.679 19.4725C449.967 20.1325 450.375 20.6365 450.903 20.9845C451.443 21.3325 452.085 21.5065 452.829 21.5065C453.585 21.5065 454.227 21.3325 454.755 20.9845C455.295 20.6365 455.709 20.1325 455.997 19.4725C456.285 18.8005 456.429 17.9965 456.429 17.0605C456.429 16.1125 456.285 15.3085 455.997 14.6485C455.709 13.9885 455.295 13.4845 454.755 13.1365C454.227 12.7885 453.585 12.6145 452.829 12.6145ZM474.133 11.1205L469.723 23.0005H467.473L463.063 11.1205H465.115L467.887 19.0225L468.607 21.3805L469.327 19.0405L472.099 11.1205H474.133ZM479.716 23.0005V11.1205H488.32V12.7765H481.642V16.1965H486.862V17.8165H481.642V21.3445H488.572V23.0005H479.716ZM499.421 11.1205C500.693 11.1205 501.701 11.4385 502.445 12.0745C503.201 12.7105 503.579 13.5685 503.579 14.6485C503.579 15.7645 503.201 16.6285 502.445 17.2405C501.701 17.8405 500.693 18.1405 499.421 18.1405L499.241 18.2485H496.487V23.0005H494.579V11.1205H499.421ZM499.277 16.6465C500.057 16.6465 500.633 16.4905 501.005 16.1785C501.389 15.8545 501.581 15.3625 501.581 14.7025C501.581 14.0545 501.389 13.5685 501.005 13.2445C500.633 12.9205 500.057 12.7585 499.277 12.7585H496.487V16.6465H499.277ZM500.411 17.0425L504.281 23.0005H502.067L498.755 17.7985L500.411 17.0425ZM518.65 11.1205V12.7765H514.582V23.0005H512.656V12.7765H508.588V11.1205H518.65ZM533.091 11.1205L528.843 18.4465V23.0005H526.917V18.4465L522.687 11.1205H524.829L526.953 14.9545L527.889 16.7185L528.825 14.9545L530.931 11.1205H533.091ZM548.945 21.3445H555.497V23.0005H547.019V11.1205H548.945V21.3445ZM563.14 11.1205V23.0005H561.214V11.1205H563.14ZM579.822 11.1205V23.0005H577.536L572.946 15.5125L571.794 13.4065H571.776L571.848 15.3325V23.0005H570.084V11.1205H572.352L576.924 18.5905L578.094 20.7325H578.112L578.04 18.7885V11.1205H579.822ZM586.758 23.0005V11.1205H595.362V12.7765H588.684V16.1965H593.904V17.8165H588.684V21.3445H595.614V23.0005H586.758Z" fill="white"/>
<line x1="328" y1="19.0005" x2="8.74228e-08" y2="19.0005" stroke="white" stroke-width="2"/>
<circle cx="12" cy="20.0005" r="12" transform="rotate(180 12 20.0005)" fill="white"/>
</svg>
