<svg width="132" height="51" viewBox="0 0 132 51" fill="none" xmlns="http://www.w3.org/2000/svg">
<path d="M28.785 41C28.6917 41 28.6217 40.965 28.575 40.895C28.5517 40.825 28.54 40.72 28.54 40.58C28.54 40.3467 28.6217 40.23 28.785 40.23H29.17C30.01 40.23 30.71 40.0317 31.27 39.635C31.83 39.215 32.11 38.41 32.11 37.22V18.88C32.11 17.69 31.83 16.8967 31.27 16.5C30.71 16.08 30.01 15.87 29.17 15.87H28.785C28.6917 15.87 28.6217 15.835 28.575 15.765C28.5517 15.695 28.54 15.59 28.54 15.45C28.54 15.2167 28.6217 15.1 28.785 15.1C31.515 15.0533 34.0117 15.03 36.275 15.03C38.7483 15.03 40.37 15.0533 41.14 15.1C43.0067 15.2167 44.885 15.73 46.775 16.64C48.665 17.55 50.2517 18.9617 51.535 20.875C52.8417 22.765 53.495 25.1567 53.495 28.05C53.495 30.9433 52.8417 33.3467 51.535 35.26C50.2517 37.15 48.665 38.55 46.775 39.46C44.885 40.37 43.0067 40.8833 41.14 41C40.3933 41.0467 38.8067 41.07 36.38 41.07C34.0933 41.07 31.5617 41.0467 28.785 41ZM40.16 39.95C41.42 39.95 42.645 39.6233 43.835 38.97C45.025 38.3167 46.0283 37.1033 46.845 35.33C47.685 33.5567 48.105 31.13 48.105 28.05C48.105 24.97 47.685 22.5433 46.845 20.77C46.0283 18.9967 45.025 17.7833 43.835 17.13C42.645 16.4767 41.42 16.15 40.16 16.15H39.915C38.8417 16.15 38.095 16.3133 37.675 16.64C37.255 16.9667 37.045 17.5383 37.045 18.355V37.745C37.045 38.585 37.255 39.1683 37.675 39.495C38.095 39.7983 38.8417 39.95 39.915 39.95H40.16ZM65.5908 41.455C63.8408 41.455 62.2774 41.035 60.9008 40.195C59.5474 39.355 58.4974 38.2467 57.7508 36.87C57.0041 35.4933 56.6308 34.035 56.6308 32.495C56.6308 30.9317 57.0041 29.4733 57.7508 28.12C58.4974 26.7433 59.5474 25.6467 60.9008 24.83C62.2774 23.99 63.8408 23.57 65.5908 23.57C67.3408 23.57 68.8924 23.99 70.2458 24.83C71.6224 25.6467 72.6841 26.7433 73.4308 28.12C74.1774 29.4733 74.5508 30.9317 74.5508 32.495C74.5508 34.035 74.1774 35.4933 73.4308 36.87C72.6841 38.2467 71.6224 39.355 70.2458 40.195C68.8924 41.035 67.3408 41.455 65.5908 41.455ZM65.5908 40.58C66.9441 40.58 67.9824 39.7983 68.7058 38.235C69.4524 36.6483 69.8258 34.735 69.8258 32.495C69.8258 30.2317 69.4524 28.33 68.7058 26.79C67.9824 25.25 66.9441 24.48 65.5908 24.48C64.2374 24.48 63.1991 25.25 62.4758 26.79C61.7524 28.33 61.3908 30.2317 61.3908 32.495C61.3908 34.735 61.7524 36.6483 62.4758 38.235C63.1991 39.7983 64.2374 40.58 65.5908 40.58ZM97.0511 39.74C97.4245 39.74 97.6111 39.9033 97.6111 40.23C97.6111 40.4167 97.5295 40.5333 97.3661 40.58C97.1561 40.6267 94.7761 40.9067 90.2261 41.42L90.1911 38.375C89.5845 39.2617 88.8378 39.9967 87.9511 40.58C87.0645 41.14 86.0611 41.42 84.9411 41.42C83.0511 41.42 81.6395 40.895 80.7061 39.845C79.7728 38.7717 79.2828 37.5 79.2361 36.03C79.1661 34.1167 79.1311 31.3167 79.1311 27.63C79.1311 26.8833 78.9678 26.3817 78.6411 26.125C78.3378 25.8683 77.8011 25.74 77.0311 25.74C76.8211 25.7167 76.7161 25.5417 76.7161 25.215C76.7161 25.0517 76.7861 24.9583 76.9261 24.935C77.1361 24.865 79.3995 24.41 83.7161 23.57C83.6461 26.8133 83.6111 29.555 83.6111 31.795C83.6111 33.615 83.6345 34.945 83.6811 35.785C83.7745 36.975 84.0195 37.92 84.4161 38.62C84.8128 39.32 85.5011 39.67 86.4811 39.67C87.8345 39.67 89.0711 38.7483 90.1911 36.905L90.1211 27.665C90.1211 26.895 89.9578 26.3933 89.6311 26.16C89.3278 25.9033 88.7911 25.7633 88.0211 25.74C87.8111 25.7167 87.7061 25.53 87.7061 25.18C87.7061 25.04 87.7761 24.9583 87.9161 24.935C88.1261 24.865 90.3895 24.41 94.7061 23.57V38.06C94.7061 39.1567 95.3245 39.7283 96.5611 39.775L97.0511 39.74ZM100.11 41C99.9231 41 99.8298 40.86 99.8298 40.58C99.8298 40.3233 99.9231 40.195 100.11 40.195H100.46C101.136 40.195 101.661 40.09 102.035 39.88C102.431 39.6467 102.63 39.1683 102.63 38.445L102.595 18.74C102.595 17.9933 102.431 17.5033 102.105 17.27C101.801 17.0133 101.265 16.8617 100.495 16.815C100.355 16.815 100.261 16.7567 100.215 16.64C100.168 16.5233 100.145 16.4067 100.145 16.29C100.145 16.15 100.215 16.0683 100.355 16.045C101.031 15.905 102.046 15.695 103.4 15.415C104.776 15.135 106.036 14.89 107.18 14.68V38.445C107.18 39.1683 107.366 39.6467 107.74 39.88C108.113 40.09 108.638 40.195 109.315 40.195H109.7C109.863 40.195 109.945 40.3233 109.945 40.58C109.945 40.86 109.863 41 109.7 41H100.11ZM130.824 37.815C130.894 37.815 130.952 37.8383 130.999 37.885C131.069 37.9317 131.104 38.0017 131.104 38.095L131.069 38.27C130.789 39.1567 130.264 39.9033 129.494 40.51C128.724 41.0933 127.895 41.385 127.009 41.385C125.259 41.385 124.115 40.615 123.579 39.075C122.669 39.8683 121.642 40.475 120.499 40.895C119.355 41.2917 118.247 41.49 117.174 41.49C115.704 41.49 114.549 41.1517 113.709 40.475C112.892 39.775 112.484 38.8183 112.484 37.605C112.484 35.785 113.51 34.3383 115.564 33.265C116.124 32.985 116.73 32.7633 117.384 32.6C118.037 32.4367 118.912 32.25 120.009 32.04C121.245 31.83 122.33 31.5967 123.264 31.34V29.765C123.264 28.3417 123.229 27.35 123.159 26.79C123.089 26.2067 122.914 25.7283 122.634 25.355C122.167 24.795 121.549 24.515 120.779 24.515C120.195 24.515 119.682 24.7017 119.239 25.075C118.819 25.4483 118.469 26.23 118.189 27.42C117.979 28.2833 117.64 28.925 117.174 29.345C116.73 29.765 116.217 29.975 115.634 29.975C115.05 29.975 114.537 29.8117 114.094 29.485C113.65 29.135 113.429 28.6567 113.429 28.05C113.429 27.5833 113.604 27.0117 113.954 26.335C114.327 25.635 115.05 25.005 116.124 24.445C117.22 23.8617 118.749 23.57 120.709 23.57C123.462 23.57 125.48 24.27 126.764 25.67C127.184 26.1367 127.464 26.6617 127.604 27.245C127.767 27.805 127.849 28.505 127.849 29.345L127.814 33.195C127.79 33.965 127.779 35.155 127.779 36.765C127.779 37.7917 127.884 38.4567 128.094 38.76C128.304 39.04 128.584 39.18 128.934 39.18C129.214 39.18 129.494 39.0867 129.774 38.9C130.077 38.69 130.345 38.3867 130.579 37.99C130.649 37.8733 130.73 37.815 130.824 37.815ZM119.869 39.495C120.452 39.495 121.035 39.39 121.619 39.18C122.225 38.9467 122.797 38.6083 123.334 38.165C123.24 37.5817 123.194 36.8933 123.194 36.1L123.229 32.25C121.105 32.81 119.565 33.51 118.609 34.35C117.652 35.1667 117.174 36.17 117.174 37.36C117.174 38.0133 117.419 38.5383 117.909 38.935C118.399 39.3083 119.052 39.495 119.869 39.495Z" fill="white"/>
<path d="M20.7563 5.33409C20.7265 5.10565 20.4297 5.14311 20.4059 5.37226C18.4995 23.6999 8.10593 23.0591 1.98436 21.3021C1.75139 21.2352 1.57609 21.6378 1.77806 21.7717C13.5937 29.61 12.428 38.2126 7.38994 46.8478C7.27408 47.0463 7.51897 47.2499 7.68441 47.0903C19.4618 35.7233 21.8669 13.834 20.7563 5.33409Z" fill="#FF6D6D"/>
<circle cx="9.5" cy="12.5" r="4.5" fill="#77D7D3"/>
</svg>
