<svg width="86" height="86" viewBox="0 0 86 86" fill="none" xmlns="http://www.w3.org/2000/svg">
<circle cx="43" cy="43" r="42" fill="white" stroke="#D5D5D5" stroke-width="2"/>
<path d="M31.1485 52.6133L31.1426 52.6045L31.1365 52.5958C28.5591 48.9014 27.0467 45.4261 26.4641 42.4307C25.9697 39.876 26.2323 37.6555 27.1594 35.8777C28.7804 32.7915 31.967 31.668 34.5352 31.668C37.1195 31.668 39.1217 32.6332 40.1145 34.1162C40.7366 35.0875 41.3833 36.8463 40.2096 39.6739C39.9632 40.2194 39.3492 41.7531 38.9931 43.5224C38.6447 45.2529 38.4835 47.4868 39.4711 49.1877L39.4748 49.1939L39.4784 49.2C40.0785 50.2002 40.0859 51.2266 39.5498 52.2423C38.7802 53.5547 36.8593 54.6289 34.9746 54.6289C33.3666 54.6289 32.0129 53.9099 31.1485 52.6133Z" stroke="#9E5A35" stroke-width="2"/>
<path d="M34.2803 28.4062L34.2622 28.3792L34.2419 28.3537C34.0227 28.0797 33.9009 27.675 33.9587 27.2624C34.0751 26.5179 34.6905 25.9899 35.4556 25.9694L35.5 26.0137L35.7474 26.0491C36.5872 26.1691 37.1303 26.931 36.9659 27.6983L36.9613 27.7198L36.9579 27.7414C36.8353 28.5389 36.2537 29.0391 35.502 29.0391H35.5009H35.4999H35.4989H35.4978H35.4968H35.4958H35.4948H35.4938H35.4928H35.4918H35.4907H35.4897H35.4887H35.4877H35.4867H35.4857H35.4847H35.4837H35.4827H35.4817H35.4808H35.4798H35.4788H35.4778H35.4768H35.4758H35.4749H35.4739H35.4729H35.4719H35.471H35.47H35.469H35.4681H35.4671H35.4661H35.4652H35.4642H35.4633H35.4623H35.4614H35.4604H35.4595H35.4585H35.4576H35.4566H35.4557H35.4548H35.4538H35.4529H35.452H35.451H35.4501H35.4492H35.4482H35.4473H35.4464H35.4455H35.4445H35.4436H35.4427H35.4418H35.4409H35.44H35.4391H35.4382H35.4373H35.4364H35.4355H35.4346H35.4337H35.4328H35.4319H35.431H35.4301H35.4292H35.4283H35.4274H35.4265H35.4257H35.4248H35.4239H35.423H35.4221H35.4213H35.4204H35.4195H35.4187H35.4178H35.4169H35.4161H35.4152H35.4143H35.4135H35.4126H35.4118H35.4109H35.4101H35.4092H35.4084H35.4075H35.4067H35.4058H35.405H35.4041H35.4033H35.4025H35.4016H35.4008H35.4H35.3991H35.3983H35.3975H35.3966H35.3958H35.395H35.3942H35.3933H35.3925H35.3917H35.3909H35.3901H35.3893H35.3885H35.3876H35.3868H35.386H35.3852H35.3844H35.3836H35.3828H35.382H35.3812H35.3804H35.3796H35.3788H35.378H35.3772H35.3765H35.3757H35.3749H35.3741H35.3733H35.3725H35.3718H35.371H35.3702H35.3694H35.3686H35.3679H35.3671H35.3663H35.3656H35.3648H35.364H35.3633H35.3625H35.3617H35.361H35.3602H35.3595H35.3587H35.358H35.3572H35.3564H35.3557H35.3549H35.3542H35.3535H35.3527H35.352H35.3512H35.3505H35.3497H35.349H35.3483H35.3475H35.3468H35.3461H35.3453H35.3446H35.3439H35.3431H35.3424H35.3417H35.341H35.3402H35.3395H35.3388H35.3381H35.3374H35.3366H35.3359H35.3352H35.3345H35.3338H35.3331H35.3324H35.3317H35.331H35.3302H35.3295H35.3288H35.3281H35.3274H35.3267H35.326H35.3253H35.3246H35.324H35.3233H35.3226H35.3219H35.3212H35.3205H35.3198H35.3191H35.3184H35.3178H35.3171H35.3164H35.3157H35.315H35.3143H35.3137H35.313H35.3123H35.3116H35.311H35.3103H35.3096H35.309H35.3083H35.3076H35.307H35.3063H35.3056H35.305H35.3043H35.3036H35.303H35.3023H35.3017H35.301H35.3004H35.2997H35.299H35.2984H35.2977H35.2971H35.2964H35.2958H35.2951H35.2945H35.2939H35.2932H35.2926H35.2919H35.2913H35.2906H35.29H35.2894H35.2887H35.2881H35.2875H35.2868H35.2862H35.2856H35.2849H35.2843H35.2837H35.283H35.2824H35.2818H35.2812H35.2805H35.2799H35.2793H35.2787H35.278H35.2774H35.2768H35.2762H35.2756H35.2749H35.2743H35.2737H35.2731H35.2725H35.2719H35.2713H35.2707H35.27H35.2694H35.2688H35.2682H35.2676H35.267H35.2664H35.2658H35.2652H35.2646H35.264H35.2634H35.2628H35.2622H35.2616H35.261H35.2604H35.2598H35.2592H35.2586H35.258H35.2574H35.2568H35.2563H35.2557H35.2551H35.2545H35.2539H35.2533H35.2527H35.2521H35.2516H35.251H35.2504H35.2498H35.2492H35.2486H35.2481H35.2475H35.2469H35.2463H35.2457H35.2452H35.2446H35.244H35.2434H35.2429H35.2423H35.2417H35.2412H35.2406H35.24H35.2394H35.2389H35.2383H35.2377H35.2372H35.2366H35.236H35.2355H35.2349H35.2343H35.2338H35.2332H35.2326H35.2321H35.2315H35.231H35.2304H35.2298H35.2293H35.2287H35.2282H35.2276H35.2271H35.2265H35.2259H35.2254H35.2248H35.2243H35.2237H35.2232H35.2226H35.2221H35.2215H35.221H35.2204H35.2199H35.2193H35.2188H35.2182H35.2177H35.2171H35.2166H35.216H35.2155H35.2149H35.2144H35.2139H35.2133H35.2128H35.2122H35.2117H35.2111H35.2106H35.2101H35.2096C34.8412 28.9731 34.5133 28.7557 34.2803 28.4062Z" stroke="#9E5A35" stroke-width="1.5"/>
<path d="M40.1066 30.9916L40.0997 30.9875L40.0928 30.9836C39.2433 30.4981 38.9004 29.3893 39.3987 28.4167C39.812 27.817 40.4609 27.4629 41.0391 27.4629C41.3889 27.4629 41.6994 27.5758 42.0023 27.7255C42.4157 27.9684 42.7312 28.4 42.8603 28.9163L42.8749 28.9746L42.8985 29.0298C43.0273 29.3302 42.9741 29.7689 42.673 30.2959L42.6627 30.3139L42.6534 30.3326C42.3645 30.9104 41.7784 31.2363 41.0391 31.2363C40.7082 31.2363 40.408 31.1725 40.1066 30.9916Z" stroke="#9E5A35" stroke-width="1.5"/>
<path d="M30.2639 26.2222L30.3752 26.2037L30.4751 26.1537C30.4776 26.153 30.4843 26.1514 30.4973 26.1497C30.5312 26.1455 30.5725 26.1445 30.668 26.1445C31.3853 26.1445 32.0274 26.6152 32.216 27.2982C32.2745 27.7588 32.1979 28.1635 31.9775 28.4941L31.9516 28.533L31.9307 28.5747C31.79 28.8563 31.4907 29.0771 31.0892 29.1345L30.9688 29.1517L30.8609 29.2056C30.8583 29.2064 30.8517 29.208 30.8386 29.2096C30.8047 29.2139 30.7635 29.2148 30.668 29.2148C29.984 29.2148 29.402 28.7757 29.2079 28.0618C29.151 27.6148 29.2159 27.1864 29.3847 26.827C29.6346 26.473 29.9768 26.2701 30.2639 26.2222ZM30.4737 26.1542C30.4737 26.1542 30.474 26.154 30.4749 26.1538L30.4737 26.1542ZM30.8622 29.2052C30.8623 29.2052 30.8619 29.2053 30.8611 29.2056L30.8622 29.2052Z" stroke="#9E5A35" stroke-width="1.5"/>
<path d="M25.3155 30.4277L25.2974 30.4006L25.2771 30.3752C25.0852 30.1354 25.0191 29.836 25.0797 29.4729C25.1469 29.0697 25.3336 28.7843 25.5168 28.6744L25.5499 28.6545L25.5809 28.6313C25.8302 28.4443 26.1156 28.3418 26.3614 28.3418C26.6838 28.3418 27.0857 28.5298 27.4177 28.9072C27.6088 29.2432 27.6886 29.5682 27.643 29.8415C27.5895 30.1628 27.36 30.4949 27.1181 30.6401L27.0849 30.66L27.0539 30.6832C26.7682 30.8975 26.5735 30.9727 26.3614 30.9727C25.9119 30.9727 25.5295 30.7488 25.3155 30.4277Z" stroke="#9E5A35" stroke-width="1.5"/>
<path d="M21.8277 33.4451L21.818 33.387L21.7994 33.3312C21.7251 33.1083 21.7777 32.8217 21.9947 32.4601L21.9988 32.4532L22.0028 32.4463C22.2193 32.0673 22.5846 31.8574 23.0215 31.8574C23.3226 31.8574 23.5484 31.9103 23.777 32.0169C24.3467 32.4508 24.491 33.2876 24.1649 33.7535L24.1452 33.7817L24.1281 33.8115C23.929 34.1599 23.496 34.4004 23.0215 34.4004C22.8197 34.4004 22.6052 34.3553 22.3726 34.2495C22.0442 33.9719 21.87 33.6988 21.8277 33.4451Z" stroke="#9E5A35" stroke-width="1.5"/>
<path d="M47.5252 55.3462L47.5216 55.3524C46.9215 56.3526 46.9141 57.3789 47.4502 58.3947C48.2198 59.707 50.1407 60.7812 52.0254 60.7812C53.6334 60.7812 54.9871 60.0622 55.8515 58.7656L55.8574 58.7568L55.8635 58.7481C58.4408 55.0539 59.9532 51.5787 60.5358 48.5834L47.5252 55.3462ZM47.5252 55.3462L47.5289 55.34M47.5252 55.3462L47.5289 55.34M47.5289 55.34C48.5165 53.6391 48.3553 51.4052 48.0069 49.6747M47.5289 55.34L48.0069 49.6747M48.0069 49.6747C47.6508 47.9054 47.0368 46.3717 46.7904 45.8262M48.0069 49.6747L46.7904 45.8262M46.7904 45.8262C45.6167 42.9987 46.2634 41.2398 46.8855 40.2685C47.8783 38.7856 49.8805 37.8203 52.4648 37.8203C55.033 37.8203 58.2197 38.9438 59.8406 42.0302C60.7677 43.808 61.0303 46.0286 60.5358 48.5833L46.7904 45.8262Z" stroke="#9E5A35" stroke-width="2"/>
<path d="M50.0421 33.8938L50.0387 33.8721L50.0341 33.8507C49.8697 33.0833 50.4128 32.3214 51.2525 32.2014L51.373 32.1842L51.4819 32.1298C51.4891 32.1262 51.4951 32.1234 51.5 32.1211C52.2856 32.122 52.9226 32.6559 53.0413 33.4147C53.0991 33.8273 52.9773 34.2321 52.7581 34.5061L52.7378 34.5315L52.7197 34.5586C52.4867 34.9081 52.1588 35.1255 51.7904 35.1914H51.7899H51.7894H51.7888H51.7883H51.7878H51.7872H51.7867H51.7861H51.7856H51.785H51.7845H51.784H51.7834H51.7829H51.7823H51.7818H51.7812H51.7807H51.7801H51.7796H51.779H51.7785H51.7779H51.7774H51.7768H51.7763H51.7757H51.7752H51.7746H51.774H51.7735H51.7729H51.7724H51.7718H51.7713H51.7707H51.7701H51.7696H51.769H51.7685H51.7679H51.7673H51.7668H51.7662H51.7657H51.7651H51.7645H51.764H51.7634H51.7628H51.7623H51.7617H51.7611H51.7606H51.76H51.7594H51.7588H51.7583H51.7577H51.7571H51.7565H51.756H51.7554H51.7548H51.7542H51.7537H51.7531H51.7525H51.7519H51.7513H51.7508H51.7502H51.7496H51.749H51.7484H51.7479H51.7473H51.7467H51.7461H51.7455H51.7449H51.7443H51.7437H51.7431H51.7426H51.742H51.7414H51.7408H51.7402H51.7396H51.739H51.7384H51.7378H51.7372H51.7366H51.736H51.7354H51.7348H51.7342H51.7336H51.733H51.7324H51.7318H51.7312H51.7306H51.7299H51.7293H51.7287H51.7281H51.7275H51.7269H51.7263H51.7257H51.725H51.7244H51.7238H51.7232H51.7226H51.7219H51.7213H51.7207H51.7201H51.7195H51.7188H51.7182H51.7176H51.717H51.7163H51.7157H51.7151H51.7144H51.7138H51.7132H51.7125H51.7119H51.7113H51.7106H51.71H51.7093H51.7087H51.7081H51.7074H51.7068H51.7061H51.7055H51.7048H51.7042H51.7035H51.7029H51.7023H51.7016H51.7009H51.7003H51.6996H51.699H51.6983H51.6977H51.697H51.6963H51.6957H51.695H51.6944H51.6937H51.693H51.6924H51.6917H51.691H51.6904H51.6897H51.689H51.6883H51.6877H51.687H51.6863H51.6856H51.685H51.6843H51.6836H51.6829H51.6822H51.6816H51.6809H51.6802H51.6795H51.6788H51.6781H51.6774H51.6767H51.676H51.6753H51.6747H51.674H51.6733H51.6726H51.6719H51.6712H51.6704H51.6697H51.669H51.6683H51.6676H51.6669H51.6662H51.6655H51.6648H51.6641H51.6634H51.6626H51.6619H51.6612H51.6605H51.6598H51.659H51.6583H51.6576H51.6569H51.6561H51.6554H51.6547H51.6539H51.6532H51.6525H51.6517H51.651H51.6503H51.6495H51.6488H51.648H51.6473H51.6465H51.6458H51.645H51.6443H51.6435H51.6428H51.642H51.6413H51.6405H51.6398H51.639H51.6382H51.6375H51.6367H51.636H51.6352H51.6344H51.6337H51.6329H51.6321H51.6313H51.6306H51.6298H51.629H51.6282H51.6275H51.6267H51.6259H51.6251H51.6243H51.6235H51.6227H51.622H51.6212H51.6204H51.6196H51.6188H51.618H51.6172H51.6164H51.6156H51.6148H51.614H51.6132H51.6123H51.6115H51.6107H51.6099H51.6091H51.6083H51.6075H51.6066H51.6058H51.605H51.6042H51.6034H51.6025H51.6017H51.6009H51.6H51.5992H51.5984H51.5975H51.5967H51.5959H51.595H51.5942H51.5933H51.5925H51.5916H51.5908H51.5899H51.5891H51.5882H51.5874H51.5865H51.5857H51.5848H51.5839H51.5831H51.5822H51.5813H51.5805H51.5796H51.5787H51.5778H51.577H51.5761H51.5752H51.5743H51.5735H51.5726H51.5717H51.5708H51.5699H51.569H51.5681H51.5672H51.5663H51.5654H51.5645H51.5636H51.5627H51.5618H51.5609H51.56H51.5591H51.5582H51.5573H51.5564H51.5554H51.5545H51.5536H51.5527H51.5518H51.5508H51.5499H51.549H51.548H51.5471H51.5462H51.5452H51.5443H51.5434H51.5424H51.5415H51.5405H51.5396H51.5386H51.5377H51.5367H51.5358H51.5348H51.5338H51.5329H51.5319H51.531H51.53H51.529H51.5281H51.5271H51.5261H51.5251H51.5242H51.5232H51.5222H51.5212H51.5202H51.5192H51.5182H51.5173H51.5163H51.5153H51.5143H51.5133H51.5123H51.5113H51.5103H51.5092H51.5082H51.5072H51.5062H51.5052H51.5042H51.5032H51.5021H51.5011H51.5001H51.4991H51.498C50.7463 35.1914 50.1647 34.6912 50.0421 33.8938Z" stroke="#9E5A35" stroke-width="1.5"/>
<path d="M44.3466 36.4849L44.3373 36.4663L44.327 36.4482C44.069 35.9968 44.0165 35.5013 44.1333 35.0928L44.1367 35.0807L44.1397 35.0686C44.2688 34.5523 44.5843 34.1207 44.9977 33.8778C45.3006 33.7281 45.6111 33.6152 45.9609 33.6152C46.5391 33.6152 47.188 33.9694 47.6013 34.569C48.0996 35.5416 47.7567 36.6505 46.9072 37.1359L46.9003 37.1399L46.8934 37.144C46.5043 37.3774 46.2038 37.4766 45.9609 37.4766C45.2723 37.4766 44.6564 37.1045 44.3466 36.4849Z" stroke="#9E5A35" stroke-width="1.5"/>
<path d="M56.1614 35.362C56.1484 35.3604 56.1417 35.3588 56.1391 35.358L56.0313 35.304L55.9108 35.2868C55.5093 35.2295 55.21 35.0086 55.0693 34.7271L55.0484 34.6853L55.0225 34.6465C54.8021 34.3159 54.7255 33.9111 54.784 33.4505C54.9726 32.7675 55.6147 32.2969 56.3321 32.2969C56.4275 32.2969 56.4688 32.2978 56.5027 32.3021C56.5157 32.3037 56.5224 32.3053 56.525 32.3061L56.6249 32.356L56.7361 32.3746C56.9769 32.4147 57.3285 32.6539 57.6281 33.0071C57.7874 33.3608 57.8476 33.7786 57.7921 34.2141C57.5981 34.928 57.0161 35.3672 56.3321 35.3672C56.2366 35.3672 56.1953 35.3662 56.1614 35.362Z" stroke="#9E5A35" stroke-width="1.5"/>
<path d="M59.9461 36.8355L59.9231 36.8183L59.8988 36.8028C59.3345 36.4437 59.1934 35.6398 59.5662 35.078C59.9012 34.6882 60.311 34.4941 60.6387 34.4941C60.8845 34.4941 61.1698 34.5966 61.4191 34.7836L61.429 34.791L61.439 34.798C61.948 35.1543 62.0939 35.9949 61.6942 36.566L61.6893 36.573L61.6846 36.5801C61.4705 36.9012 61.0882 37.125 60.6387 37.125C60.4265 37.125 60.2318 37.0499 59.9461 36.8355Z" stroke="#9E5A35" stroke-width="1.5"/>
<path d="M62.8719 39.9638L62.8679 39.9569L62.8638 39.9501C62.7001 39.6773 62.6355 39.3332 62.6968 38.9651C62.7421 38.6934 62.9342 38.427 63.2218 38.2544L63.255 38.2345L63.2859 38.2113C63.4792 38.0664 63.6617 38.0098 63.9785 38.0098C64.4154 38.0098 64.7807 38.2197 64.9973 38.5987L65.0061 38.6142L65.0157 38.6292C65.4052 39.2413 65.2481 39.9905 64.6619 40.3858C64.416 40.5031 64.1902 40.5527 63.9785 40.5527C63.5041 40.5527 63.071 40.3122 62.8719 39.9638Z" stroke="#9E5A35" stroke-width="1.5"/>
</svg>
