<svg width="86" height="87" viewBox="0 0 86 87" fill="none" xmlns="http://www.w3.org/2000/svg">
<circle cx="43" cy="43.5" r="42" fill="white" stroke="#D5D5D5" stroke-width="2"/>
<path d="M56.8148 52.0652H55.6296V27.7174C55.6296 27.3945 55.5048 27.0849 55.2825 26.8566C55.0602 26.6283 54.7588 26.5 54.4444 26.5H46.1481C45.8338 26.5 45.5324 26.6283 45.3101 26.8566C45.0878 27.0849 44.963 27.3945 44.963 27.7174V33.8043H37.8519C37.5375 33.8043 37.2361 33.9326 37.0138 34.1609C36.7915 34.3892 36.6667 34.6989 36.6667 35.0217V41.1087H29.5556C29.2412 41.1087 28.9398 41.237 28.7175 41.4653C28.4952 41.6936 28.3704 42.0032 28.3704 42.3261V52.0652H27.1852C26.8709 52.0652 26.5694 52.1935 26.3471 52.4218C26.1249 52.6501 26 52.9597 26 53.2826C26 53.6055 26.1249 53.9151 26.3471 54.1434C26.5694 54.3717 26.8709 54.5 27.1852 54.5H56.8148C57.1291 54.5 57.4306 54.3717 57.6529 54.1434C57.8751 53.9151 58 53.6055 58 53.2826C58 52.9597 57.8751 52.6501 57.6529 52.4218C57.4306 52.1935 57.1291 52.0652 56.8148 52.0652ZM39.037 36.2391H44.963V52.0652H39.037V36.2391ZM30.7407 43.5435H36.6667V52.0652H30.7407V43.5435Z" fill="#9E5A35"/>
</svg>
