<svg width="86" height="87" viewBox="0 0 86 87" fill="none" xmlns="http://www.w3.org/2000/svg">
<circle cx="43" cy="43.5" r="42" fill="white" stroke="#D5D5D5" stroke-width="2"/>
<path d="M43.5 24.9399C39.8292 24.9399 36.2408 26.0285 33.1886 28.0679C30.1364 30.1073 27.7575 33.006 26.3527 36.3974C24.948 39.7888 24.5804 43.5206 25.2966 47.1209C26.0127 50.7212 27.7804 54.0283 30.3761 56.624C32.9718 59.2196 36.2788 60.9873 39.8791 61.7034C43.4794 62.4196 47.2113 62.052 50.6027 60.6473C53.9941 59.2425 56.8927 56.8636 58.9321 53.8114C60.9715 50.7592 62.0601 47.1708 62.0601 43.5C62.0545 38.5793 60.0973 33.8617 56.6178 30.3822C53.1383 26.9027 48.4207 24.9455 43.5 24.9399ZM43.5 58.3954C40.554 58.3954 37.6741 57.5218 35.2246 55.8851C32.775 54.2483 30.8658 51.922 29.7384 49.2002C28.611 46.4784 28.3161 43.4835 28.8908 40.594C29.4656 37.7046 30.8842 35.0505 32.9674 32.9674C35.0505 30.8842 37.7046 29.4655 40.5941 28.8908C43.4835 28.3161 46.4784 28.611 49.2002 29.7384C51.922 30.8658 54.2483 32.775 55.8851 35.2245C57.5218 37.6741 58.3954 40.5539 58.3954 43.5C58.3909 47.4491 56.8202 51.2352 54.0277 54.0277C51.2352 56.8202 47.4491 58.3909 43.5 58.3954Z" fill="#9E5A35"/>
<path d="M42.6955 38.0582C44.0658 38.0582 45.1766 36.9474 45.1766 35.5771C45.1766 34.2068 44.0658 33.0959 42.6955 33.0959C41.3252 33.0959 40.2144 34.2068 40.2144 35.5771C40.2144 36.9474 41.3252 38.0582 42.6955 38.0582Z" fill="#9E5A35"/>
<path d="M41.0709 40.2822C40.7297 40.3427 40.4207 40.5215 40.1981 40.7871C39.9755 41.0527 39.8535 41.3882 39.8535 41.7347C39.8535 41.9284 39.8916 42.1203 39.9657 42.2992C40.0398 42.4782 40.1485 42.6408 40.2854 42.7778C40.4224 42.9147 40.585 43.0234 40.764 43.0975C40.9429 43.1716 41.1348 43.2097 41.3285 43.2097H41.4746V51.3798H40.6856C40.3509 51.3798 40.0299 51.5127 39.7932 51.7494C39.5565 51.9861 39.4235 52.3071 39.4235 52.6418C39.4235 52.9766 39.5565 53.2976 39.7932 53.5343C40.0299 53.7709 40.3509 53.9039 40.6856 53.9039H46.3144C46.6491 53.9039 46.9701 53.7709 47.2068 53.5343C47.4435 53.2976 47.5764 52.9766 47.5764 52.6418C47.5764 52.3071 47.4435 51.9861 47.2068 51.7494C46.9701 51.5127 46.6491 51.3798 46.3144 51.3798H45.5339V40.9503C45.5339 40.7621 45.4922 40.5762 45.4118 40.4061C45.3313 40.2359 45.2142 40.0857 45.0687 39.9662C44.9233 39.8467 44.7532 39.761 44.5706 39.7151C44.3881 39.6693 44.1977 39.6645 44.013 39.701C42.7396 39.9531 41.1214 40.2733 41.0709 40.2822Z" fill="#9E5A35"/>
</svg>
