<svg width="86" height="87" viewBox="0 0 86 87" fill="none" xmlns="http://www.w3.org/2000/svg">
<circle cx="43" cy="43.5" r="42" fill="white" stroke="#D5D5D5" stroke-width="2"/>
<path d="M43 56.1666C50.824 56.1666 57.1666 49.824 57.1666 41.9999C57.1666 34.1759 50.824 27.8333 43 27.8333C35.1759 27.8333 28.8333 34.1759 28.8333 41.9999C28.8333 49.824 35.1759 56.1666 43 56.1666Z" stroke="#9E5A35" stroke-width="3" stroke-linecap="round" stroke-linejoin="round"/>
<path d="M38.8775 37.7501C39.2106 36.8033 39.868 36.0049 40.7333 35.4963C41.5986 34.9878 42.6159 34.8019 43.6052 34.9716C44.5944 35.1413 45.4917 35.6556 46.138 36.4234C46.7844 37.1912 47.1382 38.1631 47.1367 39.1667C47.1367 42.0001 42.8867 43.4167 42.8867 43.4167" stroke="#9E5A35" stroke-width="3" stroke-linecap="round" stroke-linejoin="round"/>
<path d="M43 49.0833H43.0142" stroke="#9E5A35" stroke-width="3" stroke-linecap="round" stroke-linejoin="round"/>
</svg>
