<svg width="86" height="86" viewBox="0 0 86 86" fill="none" xmlns="http://www.w3.org/2000/svg">
<circle cx="43" cy="43" r="42" fill="white" stroke="#D5D5D5" stroke-width="2"/>
<path d="M48.2778 42.4722C47.5389 42.4722 46.914 42.2168 46.4031 41.7059C45.8922 41.195 45.6375 40.5708 45.6389 39.8333C45.6389 39.0944 45.8943 38.4696 46.4052 37.9587C46.9161 37.4478 47.5403 37.193 48.2778 37.1944C49.0167 37.1944 49.6416 37.4499 50.1524 37.9608C50.6633 38.4717 50.9181 39.0959 50.9167 39.8333C50.9167 40.5722 50.6612 41.1971 50.1503 41.708C49.6394 42.2189 49.0153 42.4736 48.2778 42.4722ZM37.7222 42.4722C36.9833 42.4722 36.3584 42.2168 35.8476 41.7059C35.3367 41.195 35.0819 40.5708 35.0833 39.8333C35.0833 39.0944 35.3388 38.4696 35.8497 37.9587C36.3606 37.4478 36.9847 37.193 37.7222 37.1944C38.4611 37.1944 39.086 37.4499 39.5969 37.9608C40.1078 38.4717 40.3625 39.0959 40.3611 39.8333C40.3611 40.5722 40.1057 41.1971 39.5948 41.708C39.0839 42.2189 38.4597 42.4736 37.7222 42.4722ZM43 53.5556C40.8889 53.5556 38.9797 52.975 37.2726 51.8139C35.5654 50.6528 34.3079 49.1222 33.5 47.2222H52.5C51.6907 49.1222 50.4332 50.6528 48.7274 51.8139C47.0217 52.975 45.1125 53.5556 43 53.5556ZM43 62C40.3611 62 37.8897 61.499 35.5858 60.4969C33.2819 59.4948 31.2763 58.1402 29.5691 56.433C27.8619 54.7258 26.5073 52.7203 25.5052 50.4163C24.5031 48.1124 24.0014 45.6403 24 43C24 40.3611 24.5017 37.8897 25.5052 35.5858C26.5087 33.2819 27.8626 31.2763 29.567 29.5691C31.2742 27.8619 33.2797 26.5073 35.5837 25.5052C37.8876 24.5031 40.3597 24.0014 43 24C45.6389 24 48.111 24.5017 50.4163 25.5052C52.7217 26.5087 54.7272 27.8626 56.433 29.567C58.1388 31.2742 59.4934 33.2797 60.4969 35.5837C61.5004 37.8876 62.0014 40.3597 62 43C62 45.6389 61.499 48.111 60.4969 50.4163C59.4948 52.7217 58.1402 54.7272 56.433 56.433C54.7258 58.1388 52.7203 59.4934 50.4163 60.4969C48.1124 61.5004 45.6403 62.0014 43 62ZM43 57.7778C47.0815 57.7778 50.5648 56.3352 53.45 53.45C56.3352 50.5648 57.7778 47.0815 57.7778 43C57.7778 38.9185 56.3352 35.4352 53.45 32.55C50.5648 29.6648 47.0815 28.2222 43 28.2222H42.3667C42.1556 28.2222 41.9444 28.2574 41.7333 28.3278C41.5222 28.5389 41.3815 28.7676 41.3111 29.0139C41.2407 29.2602 41.2056 29.5241 41.2056 29.8056C41.2056 30.5444 41.4603 31.1693 41.9698 31.6802C42.4793 32.1911 43.1041 32.4459 43.8444 32.4444C44.1611 32.4444 44.4517 32.3917 44.7163 32.2861C44.9809 32.1806 45.2533 32.1278 45.5333 32.1278C45.9556 32.1278 46.3074 32.2861 46.5889 32.6028C46.8704 32.9194 47.0111 33.2889 47.0111 33.7111C47.0111 34.5204 46.6325 35.0397 45.8753 35.2691C45.1181 35.4985 44.4412 35.6125 43.8444 35.6111C42.2611 35.6111 40.898 35.0397 39.7552 33.8969C38.6124 32.7541 38.0403 31.3903 38.0389 29.8056V29.4889C38.0389 29.3833 38.0565 29.2426 38.0917 29.0667C35.1713 30.1222 32.7963 31.8991 30.9667 34.3972C29.137 36.8954 28.2222 39.763 28.2222 43C28.2222 47.0815 29.6648 50.5648 32.55 53.45C35.4352 56.3352 38.9185 57.7778 43 57.7778Z" fill="#9E5A35"/>
</svg>
