<svg width="28" height="36" viewBox="0 0 28 36" fill="none" xmlns="http://www.w3.org/2000/svg">
<path d="M14 0.00533533C12.2006 -0.0456345 10.4096 0.269035 8.7354 0.930299C7.06117 1.59156 5.53853 2.58567 4.25963 3.85245C2.98074 5.11923 1.97218 6.63234 1.29501 8.30019C0.617842 9.96805 0.286138 11.756 0.319979 13.5557C0.319979 24.9029 12.992 35.4005 13.5248 35.8325C13.6552 35.9441 13.8212 36.0054 13.9928 36.0054C14.1644 36.0054 14.3304 35.9441 14.4608 35.8325C15.0224 35.3285 27.68 23.7797 27.68 13.5557C27.7138 11.756 27.3821 9.96805 26.7049 8.30019C26.0278 6.63234 25.0192 5.11923 23.7403 3.85245C22.4614 2.58567 20.9388 1.59156 19.2646 0.930299C17.5903 0.269035 15.7993 -0.0456345 14 0.00533533ZM14 20.1653C12.7184 20.1653 11.4655 19.7853 10.3999 19.0733C9.33425 18.3612 8.50369 17.3492 8.01324 16.1651C7.52278 14.9811 7.39446 13.6781 7.64449 12.4211C7.89452 11.1642 8.51168 10.0095 9.41793 9.10328C10.3242 8.19704 11.4788 7.57988 12.7358 7.32985C13.9928 7.07981 15.2957 7.20814 16.4798 7.6986C17.6638 8.18905 18.6759 9.01961 19.3879 10.0852C20.0999 11.1509 20.48 12.4037 20.48 13.6853C20.48 15.4039 19.7973 17.0522 18.582 18.2674C17.3668 19.4826 15.7186 20.1653 14 20.1653Z" fill="white"/>
</svg>
