<svg width="36" height="36" viewBox="0 0 36 36" fill="none" xmlns="http://www.w3.org/2000/svg">
<path d="M32.25 16.698V9.75C32.2484 8.3581 31.6948 7.02367 30.7106 6.03944C29.7263 5.05522 28.3919 4.50159 27 4.5H9C7.6081 4.50159 6.27367 5.05522 5.28944 6.03944C4.30522 7.02367 3.75159 8.3581 3.75 9.75V16.698C3.05595 17.1806 2.48887 17.8238 2.09709 18.5729C1.70532 19.322 1.50047 20.1547 1.5 21V30C1.5 30.3978 1.65804 30.7794 1.93934 31.0607C2.22064 31.342 2.60218 31.5 3 31.5H6C6.39782 31.5 6.77936 31.342 7.06066 31.0607C7.34196 30.7794 7.5 30.3978 7.5 30V27.75H28.5V30C28.5 30.3978 28.658 30.7794 28.9393 31.0607C29.2206 31.342 29.6022 31.5 30 31.5H33C33.3978 31.5 33.7794 31.342 34.0607 31.0607C34.342 30.7794 34.5 30.3978 34.5 30V21C34.4995 20.1547 34.2947 19.322 33.9029 18.5729C33.5111 17.8238 32.9441 17.1806 32.25 16.698ZM5.25 9.75C5.25119 8.7558 5.64666 7.80267 6.34966 7.09966C7.05267 6.39666 8.0058 6.00119 9 6H27C27.9942 6.00119 28.9473 6.39666 29.6503 7.09966C30.3533 7.80267 30.7488 8.7558 30.75 9.75V15.975C30.2636 15.8273 29.7583 15.7515 29.25 15.75V14.25C29.25 13.4544 28.9339 12.6913 28.3713 12.1287C27.8087 11.5661 27.0456 11.25 26.25 11.25H21.75C20.9544 11.25 20.1913 11.5661 19.6287 12.1287C19.0661 12.6913 18.75 13.4544 18.75 14.25V15.75H17.25V14.25C17.25 13.4544 16.9339 12.6913 16.3713 12.1287C15.8087 11.5661 15.0456 11.25 14.25 11.25H9.75C8.95435 11.25 8.19129 11.5661 7.62868 12.1287C7.06607 12.6913 6.75 13.4544 6.75 14.25V15.75C6.24171 15.7515 5.73637 15.8273 5.25 15.975V9.75ZM27.75 15.75H20.25V14.25C20.25 13.8522 20.408 13.4706 20.6893 13.1893C20.9706 12.908 21.3522 12.75 21.75 12.75H26.25C26.6478 12.75 27.0294 12.908 27.3107 13.1893C27.592 13.4706 27.75 13.8522 27.75 14.25V15.75ZM15.75 15.75H8.25V14.25C8.25 13.8522 8.40804 13.4706 8.68934 13.1893C8.97064 12.908 9.35218 12.75 9.75 12.75H14.25C14.6478 12.75 15.0294 12.908 15.3107 13.1893C15.592 13.4706 15.75 13.8522 15.75 14.25V15.75ZM3 21C3.00119 20.0058 3.39666 19.0527 4.09966 18.3497C4.80267 17.6467 5.7558 17.2512 6.75 17.25H29.25C30.2442 17.2512 31.1973 17.6467 31.9003 18.3497C32.6033 19.0527 32.9988 20.0058 33 21V21.75H3V21ZM6 30H3V27.75H6V30ZM3 26.25V23.25H33V26.25H3ZM33 30H30V27.75H33V30Z" fill="white"/>
</svg>
