<svg width="132" height="52" viewBox="0 0 132 52" fill="none" xmlns="http://www.w3.org/2000/svg">
<path d="M28.785 41.5C28.6917 41.5 28.6217 41.465 28.575 41.395C28.5517 41.325 28.54 41.22 28.54 41.08C28.54 40.8467 28.6217 40.73 28.785 40.73H29.17C30.01 40.73 30.71 40.5317 31.27 40.135C31.83 39.715 32.11 38.91 32.11 37.72V19.38C32.11 18.19 31.83 17.3967 31.27 17C30.71 16.58 30.01 16.37 29.17 16.37H28.785C28.6917 16.37 28.6217 16.335 28.575 16.265C28.5517 16.195 28.54 16.09 28.54 15.95C28.54 15.7167 28.6217 15.6 28.785 15.6C31.515 15.5533 34.0117 15.53 36.275 15.53C38.7483 15.53 40.37 15.5533 41.14 15.6C43.0067 15.7167 44.885 16.23 46.775 17.14C48.665 18.05 50.2517 19.4617 51.535 21.375C52.8417 23.265 53.495 25.6567 53.495 28.55C53.495 31.4433 52.8417 33.8467 51.535 35.76C50.2517 37.65 48.665 39.05 46.775 39.96C44.885 40.87 43.0067 41.3833 41.14 41.5C40.3933 41.5467 38.8067 41.57 36.38 41.57C34.0933 41.57 31.5617 41.5467 28.785 41.5ZM40.16 40.45C41.42 40.45 42.645 40.1233 43.835 39.47C45.025 38.8167 46.0283 37.6033 46.845 35.83C47.685 34.0567 48.105 31.63 48.105 28.55C48.105 25.47 47.685 23.0433 46.845 21.27C46.0283 19.4967 45.025 18.2833 43.835 17.63C42.645 16.9767 41.42 16.65 40.16 16.65H39.915C38.8417 16.65 38.095 16.8133 37.675 17.14C37.255 17.4667 37.045 18.0383 37.045 18.855V38.245C37.045 39.085 37.255 39.6683 37.675 39.995C38.095 40.2983 38.8417 40.45 39.915 40.45H40.16ZM65.5908 41.955C63.8408 41.955 62.2774 41.535 60.9008 40.695C59.5474 39.855 58.4974 38.7467 57.7508 37.37C57.0041 35.9933 56.6308 34.535 56.6308 32.995C56.6308 31.4317 57.0041 29.9733 57.7508 28.62C58.4974 27.2433 59.5474 26.1467 60.9008 25.33C62.2774 24.49 63.8408 24.07 65.5908 24.07C67.3408 24.07 68.8924 24.49 70.2458 25.33C71.6224 26.1467 72.6841 27.2433 73.4308 28.62C74.1774 29.9733 74.5508 31.4317 74.5508 32.995C74.5508 34.535 74.1774 35.9933 73.4308 37.37C72.6841 38.7467 71.6224 39.855 70.2458 40.695C68.8924 41.535 67.3408 41.955 65.5908 41.955ZM65.5908 41.08C66.9441 41.08 67.9824 40.2983 68.7058 38.735C69.4524 37.1483 69.8258 35.235 69.8258 32.995C69.8258 30.7317 69.4524 28.83 68.7058 27.29C67.9824 25.75 66.9441 24.98 65.5908 24.98C64.2374 24.98 63.1991 25.75 62.4758 27.29C61.7524 28.83 61.3908 30.7317 61.3908 32.995C61.3908 35.235 61.7524 37.1483 62.4758 38.735C63.1991 40.2983 64.2374 41.08 65.5908 41.08ZM97.0511 40.24C97.4245 40.24 97.6111 40.4033 97.6111 40.73C97.6111 40.9167 97.5295 41.0333 97.3661 41.08C97.1561 41.1267 94.7761 41.4067 90.2261 41.92L90.1911 38.875C89.5845 39.7617 88.8378 40.4967 87.9511 41.08C87.0645 41.64 86.0611 41.92 84.9411 41.92C83.0511 41.92 81.6395 41.395 80.7061 40.345C79.7728 39.2717 79.2828 38 79.2361 36.53C79.1661 34.6167 79.1311 31.8167 79.1311 28.13C79.1311 27.3833 78.9678 26.8817 78.6411 26.625C78.3378 26.3683 77.8011 26.24 77.0311 26.24C76.8211 26.2167 76.7161 26.0417 76.7161 25.715C76.7161 25.5517 76.7861 25.4583 76.9261 25.435C77.1361 25.365 79.3995 24.91 83.7161 24.07C83.6461 27.3133 83.6111 30.055 83.6111 32.295C83.6111 34.115 83.6345 35.445 83.6811 36.285C83.7745 37.475 84.0195 38.42 84.4161 39.12C84.8128 39.82 85.5011 40.17 86.4811 40.17C87.8345 40.17 89.0711 39.2483 90.1911 37.405L90.1211 28.165C90.1211 27.395 89.9578 26.8933 89.6311 26.66C89.3278 26.4033 88.7911 26.2633 88.0211 26.24C87.8111 26.2167 87.7061 26.03 87.7061 25.68C87.7061 25.54 87.7761 25.4583 87.9161 25.435C88.1261 25.365 90.3895 24.91 94.7061 24.07V38.56C94.7061 39.6567 95.3245 40.2283 96.5611 40.275L97.0511 40.24ZM100.11 41.5C99.9231 41.5 99.8298 41.36 99.8298 41.08C99.8298 40.8233 99.9231 40.695 100.11 40.695H100.46C101.136 40.695 101.661 40.59 102.035 40.38C102.431 40.1467 102.63 39.6683 102.63 38.945L102.595 19.24C102.595 18.4933 102.431 18.0033 102.105 17.77C101.801 17.5133 101.265 17.3617 100.495 17.315C100.355 17.315 100.261 17.2567 100.215 17.14C100.168 17.0233 100.145 16.9067 100.145 16.79C100.145 16.65 100.215 16.5683 100.355 16.545C101.031 16.405 102.046 16.195 103.4 15.915C104.776 15.635 106.036 15.39 107.18 15.18V38.945C107.18 39.6683 107.366 40.1467 107.74 40.38C108.113 40.59 108.638 40.695 109.315 40.695H109.7C109.863 40.695 109.945 40.8233 109.945 41.08C109.945 41.36 109.863 41.5 109.7 41.5H100.11ZM130.824 38.315C130.894 38.315 130.952 38.3383 130.999 38.385C131.069 38.4317 131.104 38.5017 131.104 38.595L131.069 38.77C130.789 39.6567 130.264 40.4033 129.494 41.01C128.724 41.5933 127.895 41.885 127.009 41.885C125.259 41.885 124.115 41.115 123.579 39.575C122.669 40.3683 121.642 40.975 120.499 41.395C119.355 41.7917 118.247 41.99 117.174 41.99C115.704 41.99 114.549 41.6517 113.709 40.975C112.892 40.275 112.484 39.3183 112.484 38.105C112.484 36.285 113.51 34.8383 115.564 33.765C116.124 33.485 116.73 33.2633 117.384 33.1C118.037 32.9367 118.912 32.75 120.009 32.54C121.245 32.33 122.33 32.0967 123.264 31.84V30.265C123.264 28.8417 123.229 27.85 123.159 27.29C123.089 26.7067 122.914 26.2283 122.634 25.855C122.167 25.295 121.549 25.015 120.779 25.015C120.195 25.015 119.682 25.2017 119.239 25.575C118.819 25.9483 118.469 26.73 118.189 27.92C117.979 28.7833 117.64 29.425 117.174 29.845C116.73 30.265 116.217 30.475 115.634 30.475C115.05 30.475 114.537 30.3117 114.094 29.985C113.65 29.635 113.429 29.1567 113.429 28.55C113.429 28.0833 113.604 27.5117 113.954 26.835C114.327 26.135 115.05 25.505 116.124 24.945C117.22 24.3617 118.749 24.07 120.709 24.07C123.462 24.07 125.48 24.77 126.764 26.17C127.184 26.6367 127.464 27.1617 127.604 27.745C127.767 28.305 127.849 29.005 127.849 29.845L127.814 33.695C127.79 34.465 127.779 35.655 127.779 37.265C127.779 38.2917 127.884 38.9567 128.094 39.26C128.304 39.54 128.584 39.68 128.934 39.68C129.214 39.68 129.494 39.5867 129.774 39.4C130.077 39.19 130.345 38.8867 130.579 38.49C130.649 38.3733 130.73 38.315 130.824 38.315ZM119.869 39.995C120.452 39.995 121.035 39.89 121.619 39.68C122.225 39.4467 122.797 39.1083 123.334 38.665C123.24 38.0817 123.194 37.3933 123.194 36.6L123.229 32.75C121.105 33.31 119.565 34.01 118.609 34.85C117.652 35.6667 117.174 36.67 117.174 37.86C117.174 38.5133 117.419 39.0383 117.909 39.435C118.399 39.8083 119.052 39.995 119.869 39.995Z" fill="#2E4049"/>
<path d="M20.7563 5.83409C20.7265 5.60565 20.4297 5.64311 20.4059 5.87226C18.4995 24.1999 8.10593 23.5591 1.98436 21.8021C1.75139 21.7352 1.57609 22.1378 1.77806 22.2717C13.5937 30.11 12.428 38.7126 7.38994 47.3478C7.27408 47.5463 7.51897 47.7499 7.68441 47.5903C19.4618 36.2233 21.8669 14.334 20.7563 5.83409Z" fill="#FF6D6D"/>
<circle cx="9.5" cy="13" r="4.5" fill="#77D7D3"/>
</svg>
