<svg width="14" height="15" viewBox="0 0 14 15" fill="none" xmlns="http://www.w3.org/2000/svg">
<path d="M13.563 11.0249C13.0286 10.4864 11.7342 9.70065 11.1062 9.38398C10.2884 8.97207 10.2211 8.93842 9.57831 9.41595C9.14955 9.73464 8.8645 10.0193 8.3627 9.91232C7.86091 9.80531 6.7705 9.20192 5.81572 8.25023C4.86094 7.29854 4.22251 6.17657 4.11515 5.67649C4.00779 5.17642 4.29722 4.89475 4.6129 4.46501C5.05782 3.85926 5.02416 3.75831 4.64386 2.94055C4.34737 2.30452 3.53864 1.02237 2.99815 0.490659C2.41996 -0.0804225 2.41996 0.0205346 2.04741 0.175336C1.7441 0.302942 1.45312 0.458054 1.17811 0.638729C0.639631 0.996454 0.340778 1.2936 0.131782 1.74017C-0.0772131 2.18674 -0.171109 3.23367 0.908196 5.19425C1.9875 7.15484 2.74473 8.15735 4.31203 9.72017C5.87933 11.283 7.0845 12.1233 8.84632 13.1113C11.0258 14.3319 11.8618 14.094 12.3097 13.8853C12.7577 13.6767 13.0562 13.3805 13.4146 12.8421C13.5958 12.5676 13.7512 12.2769 13.879 11.9739C14.0342 11.6027 14.1352 11.6027 13.563 11.0249Z" fill="#1F1F1F"/>
</svg>
