<svg width="19" height="19" viewBox="0 0 19 19" fill="none" xmlns="http://www.w3.org/2000/svg">
<path d="M9.80853 0C4.80718 0 0.751923 4.05345 0.751923 9.05256C0.751923 12.7585 2.98373 15.943 6.17376 17.3454C6.1495 16.7149 6.16971 15.9551 6.33144 15.2681C6.50529 14.5326 7.49586 10.3337 7.49586 10.3337C7.49586 10.3337 7.20475 9.75575 7.20475 8.90304C7.20475 7.56132 7.98103 6.55907 8.95139 6.55907C9.77618 6.55907 10.1724 7.17739 10.1724 7.91695C10.1724 8.74542 9.64276 9.98207 9.37187 11.1298C9.14546 12.0916 9.853 12.8716 10.8031 12.8716C12.5174 12.8716 13.6738 10.6691 13.6738 8.0584C13.6738 6.07411 12.3355 4.59094 9.90556 4.59094C7.16028 4.59094 5.44599 6.63989 5.44599 8.92728C5.44599 9.71534 5.68049 10.273 6.04438 10.7014C6.21014 10.8994 6.2344 10.9803 6.17376 11.2066C6.12928 11.3723 6.03225 11.7724 5.98777 11.934C5.92713 12.1644 5.74114 12.2452 5.53494 12.1603C4.26944 11.6431 3.67915 10.2609 3.67915 8.70097C3.67915 6.13069 5.85031 3.04716 10.1522 3.04716C13.6091 3.04716 15.8854 5.54874 15.8854 8.23217C15.8854 11.7845 13.9083 14.4356 10.9972 14.4356C10.0188 14.4356 9.10098 13.9062 8.78562 13.3081C8.78562 13.3081 8.26001 15.3934 8.1468 15.7975C7.95678 16.4967 7.58076 17.1918 7.2371 17.7374C8.07075 17.9832 8.93532 18.1084 9.80449 18.1092C14.8058 18.1092 18.8611 14.0557 18.8611 9.05661C18.8611 4.05749 14.8099 0 9.80853 0Z" fill="white"/>
</svg>
