<svg width="20" height="16" viewBox="0 0 20 16" fill="none" xmlns="http://www.w3.org/2000/svg">
<path d="M19.7519 2.22525C19.0355 2.53655 18.2774 2.74164 17.5018 2.83404C18.3169 2.35671 18.93 1.59837 19.2259 0.701264C18.4552 1.15193 17.6134 1.46814 16.7366 1.63634C16.3674 1.24939 15.9233 0.941561 15.4314 0.731562C14.9395 0.521563 14.4101 0.413783 13.8752 0.414771C11.7098 0.414771 9.95745 2.14168 9.95745 4.27048C9.95591 4.56659 9.98984 4.86182 10.0585 5.14986C8.50576 5.07707 6.9853 4.68096 5.5944 3.98688C4.2035 3.2928 2.97279 2.31603 1.98101 1.11907C1.63308 1.70563 1.44907 2.37488 1.44822 3.05687C1.44822 4.39384 2.14575 5.57562 3.19901 6.26798C2.57498 6.25317 1.96374 6.088 1.41718 5.78651V5.83426C1.41718 7.70442 2.77006 9.26023 4.56064 9.61437C4.22393 9.70413 3.87695 9.74961 3.52847 9.74966C3.28121 9.75009 3.0345 9.7261 2.79195 9.67803C3.28973 11.21 4.73851 12.3241 6.45468 12.3559C5.06017 13.4307 3.34807 14.0115 1.58749 14.0073C1.27498 14.0068 0.962758 13.9882 0.652405 13.9515C2.44345 15.0952 4.52541 15.7002 6.65045 15.6944C13.8669 15.6944 17.8093 9.8173 17.8093 4.72012C17.8093 4.553 17.805 4.38588 17.797 4.22274C18.5622 3.67842 19.2242 3.002 19.7519 2.22525Z" fill="white"/>
</svg>
